<svg width="175" height="150" viewBox="0 0 175 150" fill="none" xmlns="http://www.w3.org/2000/svg">
<path d="M75.0291 150C33.6498 150 0 116.346 0 74.9705C0 33.5953 33.6498 0 75.0291 0C116.408 0 150 33.6542 150 75.0295C150 116.405 116.35 150 75.0291 150Z" fill="white"/>
<rect x="6.24976" y="6.25" width="137.5" height="137.5" rx="68.75" fill="white"/>
<path d="M106.436 114.661C107.444 115.458 108.501 116.205 109.436 117.152C109.795 117.38 110.073 117.717 110.232 118.115C110.391 118.513 110.422 118.951 110.321 119.368C110.093 119.758 109.764 120.078 109.37 120.293C108.976 120.508 108.531 120.61 108.083 120.588C105.869 120.838 103.634 120.838 101.419 120.588C100.975 120.533 100.524 120.602 100.116 120.787C98.4392 121.478 96.6607 121.882 94.8531 121.982C92.9104 122.206 90.9185 122.181 88.9512 122.231H86.0986C84.5494 122.231 83.0001 122.381 81.4509 122.381H71.6144C68.3192 122.381 65.0239 122.381 61.7779 122.381C58.5318 122.381 55.212 122.057 51.9414 121.957C48.6707 121.858 45.0558 121.484 41.6376 121.036C40.7041 120.937 39.7765 120.787 38.8588 120.588C37.9393 120.389 37.0865 119.951 36.3839 119.318C35.6814 118.685 35.153 117.879 34.8504 116.977C34.1039 114.955 33.967 112.754 34.457 110.653C35.0712 108.585 35.3778 106.437 35.3668 104.278C35.2309 101.79 35.2309 99.296 35.3668 96.8079C35.5266 94.2981 35.8552 91.8022 36.3505 89.3377C36.8842 87.1907 37.6341 85.1047 38.5883 83.1126C39.6374 80.6418 40.8196 78.2312 42.1294 75.8915C43.3098 73.7999 44.4164 72.2311 45.9903 69.9403C47.75 67.7371 49.7645 65.7558 51.9905 64.0389C55.3257 61.8295 58.919 60.0479 62.6877 58.7351C65.4359 57.9974 68.1445 57.1164 70.8029 56.0957C71.5898 55.7969 72.3275 55.3237 73.1144 55L80 52.2859C80.2213 52.2859 80.5164 52.0618 80.5902 51.8626C80.9496 51.2567 81.1142 50.5526 81.0614 49.8479C81.0085 49.1431 80.7407 48.4723 80.2951 47.9283C79.9016 47.4801 79.5082 47.007 79.0655 46.5588C76.6064 44.0687 77.6884 44.4422 74.1473 44.4422C72.8253 44.4647 71.5202 44.1387 70.3602 43.496C68.9657 42.7966 67.7773 41.7383 66.9141 40.4272C66.0509 39.1161 65.5432 37.5983 65.442 36.0259C65.4414 35.8255 65.5112 35.6314 65.6387 35.4781C66.4709 34.384 67.4568 33.4193 68.5651 32.6145C69.3118 32.0979 70.0113 31.5145 70.6553 30.8715C71.2947 30.249 71.7619 29.4771 72.4259 28.8546C73.1722 28.1741 73.9981 27.5887 74.885 27.1115C76.7118 26.2572 78.6247 25.606 80.5902 25.1693C81.623 24.8705 81.6722 24.8705 81.6476 23.8994C81.6348 23.7253 81.6348 23.5505 81.6476 23.3765C81.6476 22.8287 82.0165 22.6793 82.5821 22.9781C83.1477 23.2769 83.7133 23.6504 84.2789 23.999C84.451 23.999 84.6232 24.2978 84.8199 24.3227C85.3695 24.2634 85.8957 24.066 86.3509 23.7486C86.8061 23.4312 87.1758 23.0037 87.4266 22.505C87.6971 21.3346 87.8692 20.0149 88.1151 18.9442C88.1151 18.4213 88.3856 17.9233 88.5578 17.251C88.8304 17.3958 89.0862 17.5712 89.3201 17.7739C90.1316 18.745 90.9185 19.6912 91.7792 20.6872L96.845 27.3855C97.8533 28.6803 98.8123 30 99.8206 31.2948C101.386 33.1345 102.777 35.1186 103.977 37.2211C104.518 38.242 105.157 39.2132 105.747 40.2341C106.411 41.3132 107.018 42.427 107.567 43.5707C108.624 46.0608 108.428 48.4014 109.387 50.8666C110.522 53.5662 111.268 56.4176 111.6 59.3327C111.772 61.4493 111.797 61.1255 111.919 63.2172C111.931 65.3019 111.529 67.3678 110.739 69.2929C110.592 69.6913 109.362 71.9323 109.165 72.3058C108.231 73.9493 108.501 73.7501 107.518 75.3686C106.131 77.7797 104.891 80.2744 103.804 82.8387C102.881 84.5618 102.171 86.3933 101.69 88.2919C101.542 89.0638 101.517 89.8855 101.321 90.6575C100.113 96.3872 99.9131 102.288 100.73 108.088C100.73 109.034 101.026 109.955 101.198 110.926C102.085 110.35 102.733 109.464 103.017 108.436C103.46 106.519 103.78 104.577 104.149 102.635C104.321 101.763 104.395 100.867 104.64 99.9951C104.886 99.1236 105.821 98.9244 106.583 99.2232C106.891 99.3417 107.168 99.5289 107.395 99.771C108.09 100.468 108.51 101.397 108.575 102.386C108.545 102.609 108.545 102.835 108.575 103.058C108.838 105.882 108.416 108.728 107.346 111.35C107.001 112.321 106.534 113.267 106.067 114.313L106.436 114.612V114.661ZM92.7875 115.159C90.8302 108.927 87.1111 103.412 82.0903 99.2979C82.0903 99.2979 81.9673 99.1236 81.7952 99.1236C81.623 99.1236 81.7952 99.3228 81.7952 99.3477C81.0574 101.838 80.4918 104.328 79.582 106.967C78.6721 109.607 77.4179 111.947 76.2621 114.661L92.7875 115.159Z" fill="#F6F6F6" stroke="#767676" stroke-width="1.35457" stroke-miterlimit="10"/>
<path d="M78.5739 67.6255C74.643 64.6617 69.7825 63.2449 64.8969 63.6388C60.0114 64.0328 55.4336 66.2106 52.0154 69.767C51.4184 70.3959 50.86 71.0611 50.3432 71.759C47.3238 75.9177 45.9719 81.08 46.5595 86.2072C47.1472 91.3344 49.6308 96.046 53.5105 99.3939C57.3903 102.742 62.3784 104.478 67.471 104.252C72.5637 104.027 77.383 101.857 80.9593 98.1784C82.9527 96.0914 84.4837 93.5979 85.45 90.8643C86.4163 88.1307 86.7957 85.2199 86.563 82.3261C86.3302 79.4322 85.4907 76.6219 84.1003 74.0826C82.71 71.5434 80.8008 69.3336 78.5001 67.6006L78.5739 67.6255ZM49.212 86.4503C48.893 84.1539 49.0265 81.8164 49.6047 79.5726C50.183 77.3288 51.1945 75.2232 52.581 73.3775C53.0288 72.7748 53.5134 72.201 54.0319 71.6594C56.3104 69.2863 59.1994 67.6065 62.372 66.81C65.5446 66.0134 68.874 66.1321 71.9835 67.1524L70.5818 69.6425C70.5481 69.7029 70.4973 69.7518 70.4359 69.7829C70.3746 69.8139 70.3055 69.8257 70.2375 69.8168C68.5807 69.4668 66.8821 69.3661 65.1963 69.518C63.9653 69.9058 62.8595 70.621 61.9945 71.5889C61.1294 72.5568 60.5366 73.7421 60.278 75.021C60.1429 75.9487 60.2046 76.8949 60.459 77.7966C60.7134 78.6983 61.1547 79.5347 61.7535 80.2501C62.1458 80.6837 62.6318 81.0195 63.1737 81.2312C63.7155 81.4429 64.2983 81.5247 64.8766 81.4702C65.7127 81.4702 67.3357 81.1216 67.803 82.8148C68.8985 83.797 70.1133 84.6338 71.4179 85.3048L72.7704 85.8029C72.8393 85.8293 72.8979 85.8775 72.9378 85.9402C72.9776 86.003 72.9965 86.077 72.9917 86.1515C72.9225 86.8145 72.7481 87.462 72.4753 88.0688C72.4382 88.1436 72.3739 88.2009 72.296 88.2288C72.2181 88.2566 72.1325 88.2528 72.0572 88.2182C70.926 87.77 68.2456 86.3258 66.1062 85.1803L65.2946 84.7321C63.6162 83.7212 61.8653 82.8389 60.0567 82.0927C59.0418 81.714 57.9253 81.7224 56.9161 82.1166C55.9068 82.5107 55.0739 83.2634 54.5729 84.2341C54.0319 85.6037 54.1302 88.3427 60.5977 91.3307L63.229 92.5011C64.8769 93.0394 66.4113 93.8838 67.7538 94.9911C67.923 95.3838 68.0104 95.8077 68.0104 96.2361C68.0104 96.6646 67.923 97.0885 67.7538 97.4812C67.6917 97.6224 67.5866 97.7397 67.4538 97.8159C67.321 97.8921 67.1676 97.9231 67.016 97.9045C65.0515 97.3963 63.2268 96.4427 61.6797 95.1156C60.8942 94.5322 60.0728 93.9999 59.2206 93.522C58.5119 93.097 57.7207 92.8324 56.9014 92.7464C56.0822 92.6605 55.2542 92.7552 54.4745 93.024C53.6845 93.3705 53.0403 93.9876 52.6547 94.767C50.8125 92.345 49.6259 89.4785 49.212 86.4503ZM80.492 94.518C80.0475 95.1313 79.5628 95.7136 79.0412 96.261C76.0822 99.3413 72.1179 101.227 67.8874 101.566C63.6569 101.905 59.449 100.674 56.0483 98.1037C55.7041 97.8547 55.3844 97.5559 55.0647 97.2819C55.02 96.9937 55.0117 96.7008 55.0401 96.4104C55.0636 96.2347 55.1298 96.0676 55.2328 95.9242C55.3358 95.7808 55.4724 95.6655 55.6303 95.5887C56.045 95.4777 56.478 95.4558 56.9015 95.5245C57.325 95.5931 57.7297 95.7507 58.0894 95.9871C58.5567 96.2361 59.2206 96.7092 59.9092 97.1824L60.1797 97.3816C62.1335 99.1055 64.5137 100.259 67.0652 100.718C67.7203 100.755 68.3722 100.603 68.9463 100.282C69.5204 99.9604 69.9935 99.4816 70.3113 98.9005C70.7483 98.0687 70.9769 97.141 70.9769 96.1988C70.9769 95.2566 70.7483 94.3289 70.3113 93.4971C68.7348 91.8074 66.7389 90.5776 64.5323 89.9363L61.9502 88.7909C58.9993 87.4214 57.6714 86.1764 57.4255 85.504C57.3905 85.4482 57.3719 85.3834 57.3719 85.3173C57.3719 85.2512 57.3905 85.1864 57.4255 85.1305C57.7215 84.9496 58.0519 84.8338 58.3952 84.7909C58.7384 84.748 59.0867 84.7789 59.4173 84.8815C59.8354 85.0309 61.1387 85.7282 63.0814 86.774L64.0405 87.2969C66.5398 88.8185 69.1644 90.1181 71.8851 91.1814C72.2462 91.2781 72.6243 91.2902 72.9908 91.2169C73.3572 91.1435 73.7023 90.9866 73.9999 90.758C74.9684 89.8132 75.5998 88.5695 75.7951 87.2222C75.8038 87.1768 75.8213 87.1336 75.8466 87.0951C75.872 87.0566 75.9046 87.0237 75.9427 86.9981C75.985 86.9781 76.0312 86.9677 76.0779 86.9677C76.1246 86.9677 76.1708 86.9781 76.2132 86.9981H76.4345C77.1203 87.2862 77.8805 87.3387 78.5985 87.1475C79.4428 86.9376 80.2105 86.4885 80.8117 85.8526C82.5331 83.8855 81.9183 82.7152 79.8527 78.7809L79.41 77.9343C78.3421 75.8557 76.8895 74.0043 75.1311 72.4811C74.9034 72.405 74.6939 72.2815 74.516 72.1185C74.3381 71.9556 74.1959 71.7568 74.0983 71.5349C73.9776 71.0618 73.9704 70.5663 74.0773 70.0898C74.1843 69.6133 74.4023 69.1696 74.7131 68.7959L74.8606 68.3975C77.0881 69.5878 79.0332 71.2547 80.5608 73.2823C82.0884 75.31 83.162 77.65 83.7072 80.1399C84.2523 82.6297 84.2559 85.2099 83.7177 87.7013C83.1795 90.1928 82.1124 92.5358 80.5904 94.5678" fill="#F07A9D"/>
<path d="M76.3102 64.3912C76.0858 64.3939 75.8649 64.3343 75.6716 64.2189C75.4782 64.1035 75.3198 63.9367 75.2134 63.7366C75.107 63.5365 75.0567 63.3107 75.068 63.0838C75.0792 62.8568 75.1516 62.6373 75.2773 62.449C75.8216 61.6043 76.5334 60.8836 77.3676 60.3325C77.5032 60.2426 77.655 60.1806 77.8143 60.15C77.9736 60.1195 78.1373 60.1211 78.296 60.1546C78.4547 60.1881 78.6053 60.253 78.7393 60.3454C78.8732 60.4379 78.9879 60.5562 79.0767 60.6935C79.1655 60.8309 79.2267 60.9846 79.2569 61.1459C79.287 61.3072 79.2855 61.4729 79.2524 61.6336C79.2193 61.7943 79.1552 61.9468 79.0639 62.0825C78.9726 62.2181 78.8558 62.3342 78.7201 62.4241C78.1694 62.7858 77.7002 63.2609 77.343 63.8185C77.2319 63.9939 77.0791 64.1382 76.8987 64.2382C76.7183 64.3383 76.5159 64.3909 76.3102 64.3912ZM81.8924 61.2538C81.5663 61.2835 81.2419 61.1808 80.9905 60.9684C80.7392 60.7559 80.5815 60.451 80.5522 60.1208C80.5228 59.7906 80.6242 59.4621 80.834 59.2076C81.0439 58.9531 81.345 58.7935 81.6711 58.7637L83.2695 58.5147L84.1302 58.3902C84.2917 58.3657 84.4563 58.3736 84.6148 58.4135C84.7732 58.4535 84.9223 58.5246 85.0536 58.6228C85.1849 58.7211 85.2958 58.8446 85.38 58.9863C85.4642 59.1279 85.52 59.285 85.5442 59.4485C85.5684 59.612 85.5606 59.7787 85.5212 59.9392C85.4818 60.0996 85.4115 60.2506 85.3145 60.3836C85.2174 60.5165 85.0955 60.6288 84.9556 60.714C84.8156 60.7993 84.6605 60.8558 84.4991 60.8803L83.5892 61.0048L82.0645 61.2289H81.8432L81.8924 61.2538ZM88.114 59.4361C87.8435 59.4387 87.5798 59.3511 87.3635 59.1866C87.1473 59.0221 86.9906 58.7901 86.9178 58.5263C86.845 58.2626 86.86 57.9819 86.9607 57.7277C87.0614 57.4735 87.242 57.26 87.4746 57.1203C88.1684 56.7377 88.8341 56.305 89.4665 55.8255C89.5924 55.7225 89.7372 55.6456 89.8925 55.5993C90.0478 55.5529 90.2105 55.538 90.3715 55.5553C90.5325 55.5726 90.6885 55.6219 90.8307 55.7003C90.9729 55.7787 91.0984 55.8847 91.2002 56.0123C91.3019 56.1398 91.3778 56.2864 91.4236 56.4436C91.4694 56.6008 91.4841 56.7657 91.467 56.9287C91.4499 57.0917 91.4012 57.2497 91.3238 57.3936C91.2464 57.5376 91.1417 57.6647 91.0157 57.7677C90.3227 58.3259 89.5913 58.8335 88.8271 59.2867C88.6409 59.3986 88.4288 59.4587 88.2123 59.461L88.114 59.4361ZM92.983 54.954C92.7678 54.9527 92.5567 54.8942 92.3708 54.7844C92.185 54.6746 92.0308 54.5173 91.9237 54.3282C91.8167 54.1392 91.7605 53.925 91.7609 53.7071C91.7612 53.4892 91.818 53.2752 91.9256 53.0865C92.2737 52.4837 92.5229 51.8278 92.6633 51.1442C92.6956 50.9807 92.7594 50.8253 92.851 50.6867C92.9427 50.5482 93.0604 50.4293 93.1974 50.3368C93.3344 50.2443 93.488 50.18 93.6496 50.1477C93.8111 50.1153 93.9774 50.1155 94.1388 50.1482C94.3003 50.1809 94.4538 50.2455 94.5906 50.3383C94.7275 50.431 94.8449 50.5502 94.9362 50.6889C95.0276 50.8277 95.091 50.9833 95.123 51.1468C95.1549 51.3104 95.1548 51.4787 95.1225 51.6422C94.9256 52.5897 94.5767 53.4982 94.0896 54.3315C93.9824 54.5196 93.8283 54.6761 93.6428 54.7853C93.4573 54.8945 93.2468 54.9527 93.0322 54.954H92.983ZM94.311 48.4799C94.1495 48.4766 93.9902 48.4412 93.8423 48.3756C93.6943 48.3101 93.5606 48.2156 93.4487 48.0977C93.3368 47.9797 93.2489 47.8406 93.1901 47.6883C93.1313 47.536 93.1027 47.3735 93.106 47.2099V46.8613C93.114 46.2282 93.0728 45.5955 92.983 44.9689C92.9588 44.8054 92.9666 44.6387 93.006 44.4782C93.0455 44.3178 93.1157 44.1668 93.2128 44.0338C93.3098 43.9009 93.4318 43.7886 93.5717 43.7034C93.7116 43.6181 93.8667 43.5617 94.0282 43.5371C94.1896 43.5126 94.3543 43.5205 94.5127 43.5604C94.6712 43.6003 94.8203 43.6715 94.9516 43.7697C95.0829 43.868 95.1938 43.9915 95.278 44.1332C95.3622 44.2748 95.4179 44.4319 95.4422 44.5954C95.5584 45.3533 95.616 46.1193 95.6143 46.8862V47.3096C95.6079 47.6354 95.4755 47.9457 95.2456 48.1739C95.0157 48.402 94.7066 48.5297 94.3847 48.5297L94.311 48.4799ZM92.8601 42.1303C92.6455 42.129 92.435 42.0708 92.2495 41.9616C92.064 41.8524 91.9099 41.6959 91.8027 41.5078C91.5026 40.9626 91.0488 40.5205 90.4993 40.2378C90.2156 40.0694 90.0096 39.7938 89.9266 39.4716C89.8436 39.1494 89.8904 38.807 90.0567 38.5197C90.223 38.2324 90.4952 38.0238 90.8134 37.9398C91.1316 37.8557 91.4698 37.9031 91.7535 38.0715C92.6598 38.5757 93.4093 39.3259 93.9175 40.2378C94.0313 40.4271 94.0932 40.6438 94.0967 40.8654C94.1002 41.0869 94.0452 41.3055 93.9374 41.4984C93.8296 41.6912 93.673 41.8515 93.4836 41.9626C93.2942 42.0737 93.0789 42.1316 92.8601 42.1303ZM78.6709 40.0137C78.3448 40.0798 78.0062 40.0119 77.7295 39.8251C77.4528 39.6383 77.2607 39.3479 77.1955 39.0177C77.1302 38.6875 77.1972 38.3446 77.3817 38.0644C77.5662 37.7842 77.853 37.5897 78.1791 37.5237C79.0152 37.1502 79.8267 36.8265 80.6382 36.5775C80.9643 36.4718 81.3185 36.5016 81.6229 36.6604C81.9273 36.8192 82.1569 37.0939 82.2613 37.4241C82.3656 37.7543 82.3361 38.1129 82.1793 38.4211C82.0225 38.7293 81.7512 38.9618 81.4251 39.0675C80.7366 39.2916 79.9989 39.5904 79.2365 39.939C79.0743 39.9726 78.907 39.9726 78.7447 39.939L78.6709 40.0137ZM87.4992 38.5197H87.1303C86.5643 38.3468 85.9755 38.2628 85.3843 38.2707H85.1138C84.7877 38.2707 84.475 38.1395 84.2444 37.906C84.0138 37.6725 83.8843 37.3559 83.8843 37.0257C83.8843 36.6955 84.0138 36.3788 84.2444 36.1453C84.475 35.9118 84.7877 35.7806 85.1138 35.7806C86.079 35.7348 87.0445 35.8612 87.9664 36.1542C88.2925 36.2037 88.5858 36.3824 88.7818 36.6509C88.9778 36.9194 89.0605 37.2557 89.0115 37.5859C88.9626 37.9161 88.7862 38.2131 88.521 38.4116C88.2558 38.6101 87.9237 38.6937 87.5976 38.6442" fill="#F07A9D"/>
<path d="M38.0469 118.445C37.8689 118.487 37.6839 118.487 37.5059 118.445C37.3583 118.376 37.2257 118.277 37.1159 118.156C37.0062 118.034 36.9214 117.891 36.8665 117.736C36.8116 117.581 36.7876 117.416 36.7961 117.251C36.8046 117.087 36.8452 116.925 36.9157 116.777C37.3069 115.934 37.7938 115.14 38.3666 114.411C38.4683 114.284 38.5939 114.178 38.7361 114.099C38.8782 114.021 39.0343 113.972 39.1953 113.954C39.3563 113.937 39.519 113.952 39.6743 113.998C39.8296 114.045 39.9744 114.122 40.1003 114.225C40.2262 114.328 40.3309 114.455 40.4084 114.599C40.4858 114.743 40.5344 114.901 40.5516 115.064C40.5687 115.227 40.554 115.391 40.5082 115.549C40.4624 115.706 40.3865 115.853 40.2847 115.98C39.8276 116.554 39.4396 117.181 39.1289 117.848C39.0311 118.062 38.875 118.243 38.6791 118.371C38.4832 118.499 38.2554 118.568 38.0223 118.57L38.0469 118.445ZM42.4242 113.739C42.159 113.738 41.9012 113.651 41.6892 113.49C41.4771 113.328 41.3222 113.102 41.2475 112.845C41.1729 112.587 41.1825 112.312 41.2748 112.06C41.3672 111.809 41.5375 111.594 41.7602 111.448L42.916 110.726L43.8505 110.128C43.9861 110.039 44.1379 109.977 44.2972 109.946C44.4565 109.915 44.6202 109.917 44.7789 109.951C44.9376 109.984 45.0882 110.049 45.2221 110.141C45.3561 110.234 45.4707 110.352 45.5596 110.489C45.6484 110.627 45.7096 110.781 45.7397 110.942C45.7699 111.103 45.7683 111.269 45.7352 111.43C45.7021 111.59 45.6381 111.743 45.5467 111.878C45.4554 112.014 45.3386 112.13 45.203 112.22L44.2193 112.843L43.1127 113.54C42.9148 113.669 42.6844 113.738 42.4488 113.739H42.4242ZM47.8588 109.954C47.5964 109.956 47.3402 109.873 47.1277 109.717C46.9152 109.561 46.7576 109.34 46.6779 109.087C46.5982 108.834 46.6006 108.562 46.6848 108.31C46.769 108.058 46.9305 107.84 47.1457 107.688C47.7812 107.236 48.3889 106.746 48.9654 106.219C49.0849 106.108 49.2249 106.022 49.3773 105.965C49.5297 105.909 49.6916 105.883 49.8537 105.89C50.0158 105.897 50.175 105.936 50.3222 106.006C50.4694 106.075 50.6016 106.173 50.7114 106.294C50.8212 106.415 50.9064 106.556 50.9621 106.711C51.0178 106.865 51.043 107.029 51.0361 107.193C51.0293 107.357 50.9906 107.519 50.9222 107.668C50.8538 107.817 50.7571 107.951 50.6376 108.062C49.9908 108.651 49.3092 109.2 48.5966 109.705C48.3905 109.862 48.141 109.949 47.8834 109.954H47.8588ZM52.1869 104.974C52.0326 105.005 51.8739 105.005 51.7197 104.974C51.5694 104.914 51.4324 104.824 51.3164 104.71C51.2005 104.596 51.1079 104.46 51.0439 104.309C50.98 104.159 50.9459 103.997 50.9437 103.834C50.9415 103.67 50.9712 103.508 51.0311 103.356C51.1909 102.953 51.3144 102.536 51.4 102.111C51.4323 101.947 51.496 101.792 51.5877 101.653C51.6793 101.514 51.797 101.396 51.934 101.303C52.071 101.211 52.2247 101.146 52.3862 101.114C52.5477 101.082 52.714 101.082 52.8754 101.114C53.0369 101.147 53.1904 101.212 53.3273 101.305C53.4641 101.397 53.5815 101.516 53.6728 101.655C53.7642 101.794 53.8276 101.95 53.8596 102.113C53.8916 102.277 53.8914 102.445 53.8591 102.609C53.7457 103.179 53.5811 103.737 53.3673 104.277C53.2774 104.513 53.1186 104.715 52.9121 104.858C52.7056 105 52.4613 105.075 52.2115 105.074" fill="#F07A9D"/>
<path d="M75.0277 150C33.6904 150 0 116.361 0 75.0281C0 33.6391 33.635 0 75.0277 0C116.365 0 150 33.6391 150 74.9719C149.945 116.361 116.365 150 75.0277 150ZM75.0277 7.076C37.5139 7.076 6.9819 37.5702 6.9819 75.0281C6.9819 112.486 37.5139 142.98 75.0277 142.98C112.542 142.98 143.018 112.486 143.018 75.0281C143.018 37.514 112.486 7.076 75.0277 7.076Z" fill="url(#paint0_linear_153_5857)"/>
<path d="M174.658 119.676C174.658 127.75 168.209 134.295 160.253 134.295C152.298 134.295 145.848 127.75 145.848 119.676C145.848 111.602 152.298 105.917 160.253 105.917C168.209 105.917 174.658 111.602 174.658 119.676Z" fill="white"/>
<path d="M160 135C151.711 135 145 128.279 145 120C145 111.721 151.711 105 160 105C168.289 105 175 111.721 175 120C175 128.234 168.246 135 160 135ZM160 106.38C152.5 106.38 146.404 112.478 146.404 120C146.404 127.522 152.5 133.62 160 133.62C167.5 133.62 173.596 127.522 173.596 120C173.596 112.478 167.5 106.38 160 106.38Z" fill="#878787"/>
<circle cx="160" cy="120" r="7.5" fill="#808285"/>
<path d="M163.346 118.905H161.159V116.719C161.167 116.562 161.143 116.405 161.089 116.257C161.034 116.11 160.95 115.975 160.842 115.861C160.734 115.747 160.603 115.656 160.459 115.594C160.314 115.532 160.159 115.5 160.001 115.5C159.844 115.5 159.689 115.532 159.544 115.594C159.4 115.656 159.269 115.747 159.161 115.861C159.053 115.975 158.969 116.11 158.914 116.257C158.86 116.405 158.836 116.562 158.844 116.719V118.905H156.657C156.506 118.905 156.355 118.935 156.215 118.993C156.075 119.051 155.947 119.136 155.84 119.243C155.733 119.35 155.648 119.478 155.589 119.618C155.531 119.758 155.501 119.908 155.501 120.06C155.501 120.212 155.531 120.362 155.589 120.502C155.648 120.642 155.733 120.77 155.84 120.877C155.947 120.984 156.075 121.07 156.215 121.128C156.355 121.186 156.506 121.216 156.657 121.216H158.844V123.402C158.859 123.698 158.988 123.977 159.203 124.182C159.419 124.386 159.705 124.5 160.001 124.5C160.298 124.5 160.584 124.386 160.799 124.182C161.015 123.977 161.143 123.698 161.159 123.402V121.216H163.346C163.497 121.216 163.648 121.186 163.788 121.128C163.928 121.07 164.056 120.984 164.163 120.877C164.27 120.77 164.355 120.642 164.413 120.502C164.472 120.362 164.501 120.212 164.501 120.06C164.501 119.908 164.472 119.758 164.413 119.618C164.355 119.478 164.27 119.35 164.163 119.243C164.056 119.136 163.928 119.051 163.788 118.993C163.648 118.935 163.497 118.905 163.346 118.905Z" fill="white"/>
<defs>
<linearGradient id="paint0_linear_153_5857" x1="0.00426672" y1="75.0026" x2="149.967" y2="75.0026" gradientUnits="userSpaceOnUse">
<stop stop-color="#F1F1F1"/>
<stop offset="0.327" stop-color="#808285"/>
<stop offset="0.5757" stop-color="#EBEBEB"/>
<stop offset="0.8946" stop-color="#808285"/>
</linearGradient>
</defs>
</svg>
