<svg width="175" height="150" viewBox="0 0 175 150" fill="none" xmlns="http://www.w3.org/2000/svg">
<path d="M75.0291 150C33.6498 150 0 116.346 0 74.9705C0 33.5953 33.6498 0 75.0291 0C116.408 0 150 33.6542 150 75.0295C150 116.405 116.35 150 75.0291 150Z" fill="white"/>
<g clip-path="url(#clip0_153_5821)">
<rect x="6.24976" y="6.25049" width="137.5" height="137.5" rx="68.75" fill="white"/>
<path d="M117.968 79.3303C117.968 55.7535 98.4404 36.6099 74.3847 36.6099C50.329 36.6099 30.7874 55.7535 30.7874 79.3303C30.7874 102.907 50.3005 122.051 74.3847 122.051C98.469 122.051 117.968 102.922 117.968 79.3303Z" fill="#D7D7D7"/>
<path d="M110.724 85.6922C110.724 66.0305 94.4392 50.0679 74.3833 50.0679C54.3273 50.0679 38.0283 66.0305 38.0283 85.6922C38.0283 105.354 54.2845 121.331 74.3833 121.331C94.4821 121.331 110.724 105.368 110.724 85.6922Z" fill="#EAEAEA"/>
<path d="M102.768 94.4729C102.768 79.1004 90.0541 66.6499 74.3836 66.6499C58.7132 66.6499 45.9854 79.1004 45.9854 94.4729C45.9854 109.845 58.6989 122.296 74.3836 122.296C90.0684 122.296 102.768 109.845 102.768 94.4729Z" fill="#F6F6F6"/>
<path d="M112.272 113.833C112.272 114.403 111.833 115.452 109.976 116.825C108.198 118.14 105.502 119.455 102.005 120.619C95.0338 122.941 85.2889 124.533 74.456 124.533C63.623 124.533 53.8819 122.941 46.9148 120.619C43.4197 119.455 40.7249 118.14 38.9486 116.826C37.0932 115.453 36.6542 114.404 36.6542 113.833C36.6542 113.307 37.0422 112.35 38.8756 111.116C40.638 109.929 43.3246 108.781 46.8309 107.786C53.8153 105.805 63.5834 104.558 74.456 104.558C85.3285 104.558 95.1003 105.805 102.088 107.787C105.597 108.782 108.285 109.929 110.049 111.116C111.884 112.351 112.272 113.307 112.272 113.833Z" stroke="#767676" stroke-width="4.13466"/>
<path d="M115.3 112.048C115.3 117.359 97.0156 121.663 74.4598 121.663C51.904 121.663 33.6194 117.345 33.6194 112.048C33.6194 106.751 51.9183 102.491 74.4598 102.491C97.0013 102.491 115.3 106.809 115.3 112.048Z" fill="white" stroke="#767676" stroke-width="4.13466" stroke-miterlimit="10"/>
<path d="M66.5129 98.1976C66.5474 98.1641 66.5769 98.1357 66.6007 98.1129C67.3873 97.8326 68.2302 98.0033 69.5287 98.5232C69.9545 98.6937 70.4304 98.9026 70.9605 99.1353C72.049 99.6131 73.3664 100.191 74.9494 100.744C77.2418 101.544 78.2009 102.454 78.5854 103.302C78.976 104.163 78.8407 105.091 78.6116 106.123C78.428 106.949 77.6132 107.831 76.4998 108.432C75.4023 109.025 74.1772 109.255 73.2808 108.974C71.1675 108.008 69.1523 106.838 67.2638 105.48L67.2432 105.465L67.2213 105.452C66.2672 104.903 65.3805 104.382 64.6812 103.852C63.9704 103.313 63.5311 102.82 63.3742 102.357C63.3705 102.346 63.3557 102.274 63.4075 102.103C63.4569 101.94 63.5517 101.737 63.6919 101.5C63.9718 101.027 64.3911 100.486 64.8384 99.9666C65.2829 99.4502 65.7417 98.9692 66.0906 98.6163C66.2647 98.4402 66.4107 98.2967 66.5129 98.1976Z" fill="#D7D7D7" stroke="#767676"/>
<path d="M69.4703 109.76C69.4858 109.714 69.4992 109.676 69.51 109.644C70.093 109.03 70.9388 108.787 72.342 108.65C72.8262 108.602 73.3824 108.567 74.0049 108.528C75.1789 108.455 76.5887 108.367 78.1952 108.151C80.5998 107.828 81.8674 108.202 82.5934 108.78C83.3301 109.368 83.6289 110.253 83.8862 111.275C84.0931 112.097 83.7641 113.257 83.0451 114.301C82.336 115.33 81.3519 116.095 80.4317 116.254C78.0878 116.371 75.7383 116.256 73.4165 115.912L73.3931 115.909L73.3695 115.907C72.2691 115.85 71.2512 115.793 70.394 115.643C69.5241 115.49 68.9159 115.255 68.5642 114.912C68.5551 114.903 68.509 114.845 68.4773 114.668C68.447 114.499 68.439 114.274 68.4561 113.998C68.4903 113.447 68.6185 112.773 68.7811 112.104C68.9426 111.44 69.1332 110.801 69.284 110.326C69.3593 110.09 69.4243 109.895 69.4703 109.76Z" fill="#D7D7D7" stroke="#767676"/>
<path d="M63.7671 105.652C63.8014 105.595 63.8295 105.549 63.8505 105.515C64.6204 104.902 65.5513 104.73 66.992 104.725C67.5476 104.723 68.1584 104.745 68.8516 104.77C69.0833 104.779 69.3242 104.788 69.5753 104.796C70.5709 104.829 71.7072 104.853 73.0109 104.817C75.5451 104.746 76.7155 105.254 77.283 105.881C77.859 106.518 77.9466 107.41 77.9538 108.494C77.9596 109.368 77.3254 110.545 76.3171 111.559C75.3152 112.567 74.0849 113.271 73.0807 113.332C71.9685 113.4 70.8057 113.231 69.6221 112.994C69.2206 112.913 68.8109 112.824 68.4006 112.734C67.6291 112.565 66.8554 112.395 66.1289 112.286C65.021 112.119 64.0015 111.962 63.1708 111.724C62.3222 111.481 61.7883 111.185 61.5361 110.824C61.5368 110.825 61.5371 110.826 61.5372 110.826C61.5379 110.826 61.5093 110.769 61.5207 110.595C61.5324 110.418 61.5813 110.184 61.6688 109.9C61.843 109.335 62.144 108.654 62.4773 107.985C62.8086 107.32 63.1629 106.685 63.4353 106.214C63.5712 105.979 63.6862 105.786 63.7671 105.652Z" fill="#D7D7D7" stroke="#767676"/>
<path d="M53.1377 107.048C53.1714 106.992 53.1992 106.947 53.2201 106.913C54.0046 106.298 54.9413 106.127 56.3804 106.122C56.9361 106.12 57.5465 106.142 58.2391 106.167C58.4705 106.175 58.7112 106.184 58.962 106.192C59.9567 106.225 61.0921 106.25 62.3958 106.213C64.9303 106.143 66.0963 106.651 66.66 107.277C67.2328 107.913 67.3172 108.805 67.3244 109.891C67.3302 110.764 66.6933 111.94 65.6827 112.955C64.687 113.955 63.4691 114.655 62.4769 114.727C60.1386 114.617 57.8177 114.266 55.5504 113.679L55.5237 113.672L55.4964 113.668C54.3927 113.509 53.3726 113.347 52.5432 113.107C51.6951 112.86 51.1579 112.561 50.9047 112.204C50.9059 112.205 50.9064 112.206 50.9065 112.206C50.9073 112.206 50.8802 112.151 50.8913 111.982C50.903 111.807 50.9518 111.574 51.0392 111.291C51.2134 110.728 51.5145 110.049 51.8478 109.38C52.1791 108.716 52.5335 108.081 52.8058 107.61C52.9418 107.375 53.0568 107.182 53.1377 107.048Z" fill="#D7D7D7" stroke="#767676"/>
<path d="M54.0446 101.751C54.0662 101.708 54.0847 101.672 54.0997 101.642C54.7572 101.119 55.6012 101.015 56.9903 101.093C57.42 101.117 57.9007 101.158 58.4331 101.204C59.6327 101.308 61.0951 101.434 62.8303 101.434C65.2637 101.434 66.4694 101.973 67.1092 102.644C67.7584 103.326 67.9327 104.246 68.0472 105.306C68.1394 106.16 67.6507 107.271 66.7939 108.204C65.9467 109.127 64.8664 109.737 63.9379 109.746C61.6273 109.531 59.3423 109.095 57.114 108.442L57.0915 108.436L57.0684 108.431C56.9865 108.416 56.9049 108.4 56.8236 108.384C55.8579 108.198 54.9422 108.022 54.1646 107.778C53.308 107.509 52.7284 107.188 52.4352 106.786C52.4209 106.766 52.3833 106.69 52.3769 106.505C52.3708 106.328 52.3949 106.099 52.4507 105.824C52.5619 105.276 52.783 104.622 53.0369 103.98C53.2893 103.342 53.5666 102.735 53.7816 102.286C53.8889 102.062 53.9803 101.878 54.0446 101.751Z" fill="#D7D7D7" stroke="#767676"/>
<path d="M73.3278 98.665C73.3435 98.619 73.3569 98.5799 73.3679 98.5484C73.9501 97.9281 74.7818 97.689 76.1701 97.555C76.6383 97.5097 77.1738 97.4767 77.7726 97.4398C78.9473 97.3674 80.3654 97.28 81.9969 97.056C84.4016 96.7259 85.6687 97.0968 86.3942 97.6735C87.1303 98.2588 87.4292 99.1433 87.6865 100.166C87.8934 100.989 87.5642 102.151 86.8451 103.197C86.1353 104.23 85.1513 104.992 84.2332 105.145C81.9131 105.264 79.587 105.15 77.2894 104.803L77.2637 104.799L77.2377 104.798C76.1316 104.748 75.1102 104.694 74.2521 104.546C73.3811 104.395 72.7731 104.16 72.4217 103.817C72.4126 103.808 72.3664 103.75 72.3347 103.573C72.3044 103.405 72.2965 103.18 72.3136 102.903C72.3477 102.353 72.4759 101.678 72.6385 101.01C72.8001 100.345 72.9906 99.7061 73.1414 99.2317C73.2167 98.9949 73.2817 98.8002 73.3278 98.665Z" fill="#D7D7D7" stroke="#767676"/>
<path d="M89.5418 114.385C89.5202 114.428 89.5018 114.465 89.4869 114.495C88.8305 115.028 87.9687 115.155 86.5696 115.104C86.0893 115.086 85.5404 115.046 84.9259 115.002C83.7571 114.917 82.3513 114.815 80.7301 114.815C78.3094 114.815 77.1069 114.286 76.4658 113.619C75.8154 112.943 75.6346 112.023 75.513 110.941C75.4142 110.063 75.8992 108.941 76.7488 108.005C77.5902 107.078 78.6669 106.469 79.5949 106.46C81.9097 106.665 84.1998 107.093 86.4343 107.735L86.462 107.743L86.4903 107.748C87.5735 107.929 88.5754 108.107 89.4031 108.367C90.2419 108.63 90.8121 108.951 91.1153 109.354C91.1289 109.372 91.1672 109.446 91.1753 109.629C91.1831 109.805 91.1609 110.033 91.1074 110.307C91.0006 110.854 90.7843 111.509 90.5348 112.151C90.2868 112.79 90.0135 113.398 89.8013 113.849C89.6954 114.073 89.6053 114.258 89.5418 114.385Z" fill="#D7D7D7" stroke="#767676"/>
<path d="M88.2815 110.584C88.26 110.627 88.2416 110.664 88.2266 110.693C87.5703 111.226 86.7085 111.354 85.3093 111.302C84.8291 111.284 84.2801 111.245 83.6656 111.2C82.4969 111.116 81.091 111.014 79.4698 111.014C77.0501 111.014 75.8473 110.481 75.2059 109.813C74.555 109.134 74.3743 108.213 74.2527 107.139C74.1542 106.269 74.6381 105.151 75.4882 104.216C76.3302 103.29 77.4075 102.681 78.3359 102.672C80.6506 102.866 82.9408 103.288 85.1735 103.934L85.2001 103.941L85.2273 103.946C86.2765 104.127 87.2791 104.306 88.1175 104.566C88.9696 104.831 89.5539 105.152 89.8551 105.553C89.8687 105.571 89.907 105.644 89.9151 105.828C89.9228 106.004 89.9007 106.232 89.8472 106.506C89.7404 107.053 89.5241 107.707 89.2745 108.35C89.0266 108.988 88.7532 109.597 88.5411 110.047C88.4352 110.272 88.345 110.456 88.2815 110.584Z" fill="#D7D7D7" stroke="#767676"/>
<path d="M94.4997 109.186C94.4655 109.222 94.4368 109.251 94.4142 109.274C93.6678 109.624 92.8694 109.587 91.6695 109.322C91.2624 109.232 90.8021 109.113 90.2872 108.981C89.2894 108.724 88.0869 108.414 86.6705 108.158C84.564 107.777 83.7362 107.155 83.4142 106.571C83.0831 105.971 83.18 105.243 83.3838 104.341C83.4591 104.008 83.6721 103.627 84.0154 103.237C84.3551 102.851 84.801 102.48 85.2998 102.166C86.3094 101.53 87.4319 101.189 88.2367 101.31C90.169 101.814 92.0428 102.523 93.827 103.425L93.8488 103.436L93.8716 103.445C94.7499 103.786 95.55 104.102 96.1803 104.446C96.8171 104.795 97.1776 105.12 97.313 105.43C97.313 105.441 97.3126 105.485 97.2852 105.575C97.2445 105.71 97.163 105.886 97.038 106.1C96.7893 106.526 96.4131 107.026 96.0101 107.512C95.61 107.996 95.1961 108.451 94.8811 108.787C94.7239 108.955 94.592 109.092 94.4997 109.186Z" fill="#D7D7D7" stroke="#767676"/>
<path d="M96.3332 113.375C96.2991 113.41 96.2703 113.44 96.2477 113.463C95.5071 113.807 94.7109 113.773 93.5137 113.511C93.0971 113.42 92.6218 113.298 92.0879 113.162C91.099 112.908 89.9092 112.603 88.5193 112.347C86.4138 111.96 85.5806 111.331 85.2561 110.743C84.9236 110.14 85.02 109.411 85.2299 108.521C85.3919 107.834 86.1276 106.998 87.1522 106.354C88.1602 105.72 89.2791 105.378 90.0837 105.499C92.0144 106.005 93.8885 106.709 95.6766 107.601L95.6973 107.611L95.7188 107.62C96.597 107.961 97.3971 108.277 98.0275 108.621C98.6641 108.97 99.0246 109.295 99.1601 109.605C99.1601 109.616 99.1595 109.66 99.132 109.75C99.091 109.885 99.0089 110.062 98.8832 110.277C98.6331 110.704 98.2551 111.206 97.8503 111.694C97.4484 112.179 97.0326 112.637 96.7163 112.974C96.5584 113.142 96.4259 113.28 96.3332 113.375Z" fill="#D7D7D7" stroke="#767676"/>
<path d="M-70.9405 100.332C-71.9662 100.204 -71.9663 100.205 -71.9664 100.206L-71.9667 100.208L-71.9672 100.212L-71.9682 100.221L-71.9706 100.244C-71.9722 100.261 -71.9739 100.282 -71.9754 100.306C-71.9784 100.354 -71.9806 100.415 -71.98 100.488C-71.9789 100.635 -71.9664 100.83 -71.9248 101.06C-71.8411 101.522 -71.6394 102.122 -71.1805 102.728C-70.2449 103.963 -68.4193 105 -65.0511 105.221C-61.7987 105.433 -59.4087 105.327 -57.63 105.221C-57.429 105.209 -57.2381 105.197 -57.0561 105.186C-56.424 105.147 -55.9002 105.115 -55.4401 105.105C-54.8475 105.093 -54.4507 105.121 -54.1594 105.193C-53.833 105.273 -53.3769 105.455 -52.7655 105.722C-52.6154 105.787 -52.457 105.857 -52.2924 105.93C-51.8217 106.138 -51.2996 106.369 -50.7699 106.582C-49.3848 107.139 -47.6587 107.699 -46.078 107.445C-42.8618 107.126 -39.6146 107.389 -36.4902 108.222C-35.2409 108.58 -33.9026 108.44 -32.7536 107.831C-31.6016 107.22 -30.7303 106.186 -30.3189 104.946L-30.2663 104.788V104.621V102.942C-29.8507 102.884 -29.3062 102.81 -28.6714 102.727C-27.1809 102.534 -25.1976 102.294 -23.2178 102.107C-21.2294 101.92 -19.2782 101.79 -17.8384 101.809C-17.1738 101.818 -16.6708 101.858 -16.3391 101.921C-16.2301 103.114 -15.7548 104.249 -14.9716 105.165C-14.0781 106.209 -12.8425 106.899 -11.4868 107.109C-9.63786 107.446 -6.92029 107.65 -4.17311 107.526C-1.44147 107.404 1.4584 106.953 3.57594 105.89C5.91229 104.721 7.50257 102.891 7.91146 100.927C8.11824 99.9345 8.01618 98.9173 7.54668 97.9957C7.07811 97.0759 6.27892 96.3197 5.20435 95.7805L5.19901 95.7778C4.6574 95.5099 3.97073 95.3638 3.3424 95.2599C2.93543 95.1926 2.48029 95.1331 2.04362 95.0759C1.80315 95.0444 1.56828 95.0137 1.35014 94.9828C0.694099 94.8899 0.138092 94.7899 -0.282387 94.6528C-0.590645 94.5524 -0.719727 94.4651 -0.765221 94.4295C-0.765114 94.3778 -0.759506 94.2269 -0.658508 93.9262C-0.516571 93.5037 -0.257584 92.9975 0.0515976 92.484C0.355675 91.9789 0.684166 91.5062 0.939171 91.157C1.06599 90.9834 1.17307 90.8424 1.2477 90.7457C1.25249 90.7395 1.25716 90.7335 1.26168 90.7277C3.81449 89.0788 6.48897 87.6295 9.26161 86.3925L9.26893 86.3892L9.27619 86.3858C11.9895 85.1245 13.4075 84.7209 14.5965 84.4699C14.882 84.4096 15.1663 84.3564 15.4605 84.3012C16.4049 84.1241 17.451 83.928 18.9679 83.4204C21.0639 82.7191 22.5412 81.625 23.7513 80.503C24.2625 80.029 24.7339 79.5421 25.1715 79.0902C25.2438 79.0156 25.3151 78.9419 25.3856 78.8694C25.8926 78.3475 26.3574 77.8816 26.8433 77.4774C27.4243 76.9941 27.9111 76.4953 28.3322 76.0486C28.4282 75.9467 28.5193 75.8493 28.6065 75.756C28.9159 75.4249 29.177 75.1456 29.4415 74.9008C29.7719 74.5949 30.0368 74.4128 30.2814 74.3153C30.5042 74.2264 30.7545 74.1897 31.0973 74.257C31.4141 74.3191 32.0116 74.5959 32.8516 75.1571C33.6569 75.6952 34.5856 76.4262 35.5399 77.2738C37.4562 78.9759 39.3979 81.0785 40.604 82.9083C40.9772 83.4744 41.3346 84.0416 41.6832 84.5949C42.464 85.834 43.2005 87.0029 43.9711 87.9325C45.1434 89.3469 46.5329 90.3993 48.5679 90.661C50.3427 90.9249 52.144 90.9463 53.9231 90.7252C54.4494 91.1505 55.0473 91.4803 55.6902 91.6979C56.4984 91.9713 57.3569 92.0605 58.2037 91.9588L58.2451 91.9538L58.2859 91.9455C59.3767 91.7242 59.9855 91.4478 60.4933 91.2172C60.5381 91.1968 60.5821 91.1769 60.6256 91.1573C61.0748 90.9553 61.5004 90.7796 62.4202 90.6712C63.3977 90.6729 64.3492 90.3537 65.1299 89.762C65.93 89.1557 66.5046 88.2985 66.7642 87.3276L66.7955 87.2106L66.7989 87.0896C66.8621 84.8437 67.5372 82.6593 68.7495 80.7755C68.9963 80.4309 69.3608 79.9685 69.8034 79.4072C71.1338 77.7197 73.1692 75.1382 74.828 72.173C77.0663 68.1718 78.8237 63.1577 77.4639 58.0504C74.9896 48.758 71.1 42.9616 65.5231 39.7048C65.5248 39.6569 65.5265 39.6065 65.5282 39.5538C65.5443 39.0544 65.563 38.3419 65.5734 37.4862C65.5941 35.7769 65.5816 33.4861 65.4476 31.1766C65.3144 28.8805 65.0582 26.5093 64.5735 24.6639C64.3326 23.7465 64.0181 22.89 63.5891 22.227C63.163 21.5686 62.5204 20.9511 61.5988 20.8576C60.3136 20.7271 58.9073 21.2616 57.6212 21.9968C56.3001 22.752 54.944 23.8133 53.7072 24.963C52.4675 26.1154 51.3208 27.3816 50.4234 28.5671C49.5477 29.7238 48.8354 30.8991 48.5702 31.8591C48.5233 32.0289 48.4515 32.119 48.3609 32.1875C48.2522 32.2696 48.0628 32.3585 47.7378 32.4187C47.0606 32.5442 46.0963 32.4966 44.8363 32.359C44.4245 32.314 43.986 32.2596 43.5272 32.2026C41.3201 31.9286 38.6426 31.5963 36.2078 31.9766C35.0114 32.1635 33.2975 32.0078 31.1752 31.6145C29.106 31.231 26.7666 30.6464 24.3179 30.0344L24.2152 30.0087L24.1987 30.0046C19.3087 28.7826 13.9215 27.4363 9.90046 27.6476C9.70683 27.6577 9.50849 27.6682 9.30574 27.6789C5.48158 27.8809 0.0884399 28.1657 -4.82053 28.0691C-7.40649 28.0183 -9.82487 27.8619 -11.7905 27.5403C-13.8187 27.2084 -15.1478 26.7311 -15.7604 26.1914C-16.3324 25.6874 -17.1494 25.2839 -18.0823 24.961C-19.0321 24.6323 -20.1766 24.362 -21.4655 24.1628C-24.0443 23.7643 -27.2672 23.6405 -30.7981 23.9399C-37.8519 24.538 -46.2481 26.836 -53.2517 32.1454C-60.0965 37.3344 -68.486 44.7054 -74.5857 52.8062C-80.6494 60.8591 -84.6491 69.902 -82.1596 78.3147C-79.799 86.2916 -77.6185 90.6891 -75.8282 93.3329C-74.9293 94.6604 -74.1379 95.532 -73.493 96.1814C-73.3298 96.3456 -73.1324 96.5379 -72.9635 96.7025C-72.85 96.813 -72.7494 96.9111 -72.6807 96.9796C-72.4571 97.2027 -72.3127 97.3625 -72.2113 97.505L-72.2011 97.5193L-72.1904 97.5334C-71.9344 97.8685 -71.7712 98.2672 -71.7185 98.6883C-71.6658 99.1095 -71.7257 99.5371 -71.8915 99.9266L-71.9483 100.06L-71.9662 100.204L-70.9405 100.332Z" fill="#F9CEDA" stroke="#F07A9D" stroke-width="2.06733"/>
</g>
<path d="M75.0277 150C33.6904 150 0 116.361 0 75.0281C0 33.6391 33.635 0 75.0277 0C116.365 0 150 33.6391 150 74.9719C149.945 116.361 116.365 150 75.0277 150ZM75.0277 7.076C37.5139 7.076 6.9819 37.5702 6.9819 75.0281C6.9819 112.486 37.5139 142.98 75.0277 142.98C112.542 142.98 143.018 112.486 143.018 75.0281C143.018 37.514 112.486 7.076 75.0277 7.076Z" fill="url(#paint0_linear_153_5821)"/>
<path d="M174.658 119.676C174.658 127.75 168.209 134.295 160.253 134.295C152.298 134.295 145.848 127.75 145.848 119.676C145.848 111.602 152.298 105.917 160.253 105.917C168.209 105.917 174.658 111.602 174.658 119.676Z" fill="white"/>
<path d="M160 135C151.711 135 145 128.279 145 120C145 111.721 151.711 105 160 105C168.289 105 175 111.721 175 120C175 128.234 168.246 135 160 135ZM160 106.38C152.5 106.38 146.404 112.478 146.404 120C146.404 127.522 152.5 133.62 160 133.62C167.5 133.62 173.596 127.522 173.596 120C173.596 112.478 167.5 106.38 160 106.38Z" fill="#878787"/>
<path fill-rule="evenodd" clip-rule="evenodd" d="M165.684 112.5C165.76 112.576 165.798 112.652 165.836 112.728C166.975 114.663 168.151 116.598 169.289 118.495C169.82 119.406 170.238 120.355 170.428 121.379C170.921 124.149 168.834 126.729 165.988 126.805C163.673 126.881 161.814 125.553 161.207 123.466C160.865 122.176 161.017 120.886 161.624 119.71C162.687 117.698 163.825 115.725 164.926 113.752C165.191 113.335 165.457 112.917 165.684 112.5Z" fill="#D7D7D7"/>
<path d="M154.946 120.392H152.67C151.759 120.392 151 119.671 151 118.723V116.446C151 115.535 151.721 114.776 152.67 114.776H154.946C155.857 114.776 156.616 115.497 156.616 116.446V118.723C156.616 119.633 155.857 120.392 154.946 120.392Z" fill="#D7D7D7"/>
<defs>
<linearGradient id="paint0_linear_153_5821" x1="0.00426672" y1="75.0026" x2="149.967" y2="75.0026" gradientUnits="userSpaceOnUse">
<stop stop-color="#F1F1F1"/>
<stop offset="0.327" stop-color="#808285"/>
<stop offset="0.5757" stop-color="#EBEBEB"/>
<stop offset="0.8946" stop-color="#808285"/>
</linearGradient>
<clipPath id="clip0_153_5821">
<rect x="6.24976" y="6.25049" width="137.5" height="137.5" rx="68.75" fill="white"/>
</clipPath>
</defs>
</svg>
