<svg width="175" height="150" viewBox="0 0 175 150" fill="none" xmlns="http://www.w3.org/2000/svg">
<path d="M117.154 96.9958H24.8905C24.7621 96.9967 24.6381 97.0424 24.5406 97.1249C24.443 97.2073 24.3783 97.3212 24.3577 97.4462C24.335 97.5693 24.3576 97.6963 24.4214 97.8045C24.4852 97.9126 24.586 97.9948 24.7057 98.0361C35.6447 101.93 49.2695 103.903 65.1995 103.903C82.7301 103.734 100.196 101.776 117.317 98.0576C117.447 98.0248 117.56 97.9471 117.636 97.8387C117.712 97.7304 117.745 97.5986 117.731 97.4677C117.712 97.3322 117.642 97.2086 117.535 97.1212C117.429 97.0339 117.293 96.9891 117.154 96.9958Z" fill="#D0D2D3"/>
<path d="M92.7103 91.6433C93.0148 89.7449 92.2971 85.7871 93.5585 82.5265C93.6672 82.2369 93.7433 82.0546 93.8086 81.9045C91.2206 80.1455 87.4909 80.6388 84.0222 81.7865C84.2723 83.3953 84.4028 85.0041 84.5333 86.6452C84.5333 87.1707 84.6203 87.7177 84.6746 88.2755V88.5865C84.7312 90.2972 85.0501 91.9896 85.6207 93.6061L85.7294 93.9171C85.8884 94.6893 86.229 95.4138 86.7238 96.0323C87.2187 96.6508 87.8539 97.146 88.5783 97.478C88.8766 97.6423 89.1997 97.7582 89.5352 97.8212C90.1663 97.9388 90.8068 97.9999 91.449 98.0036H91.9927C94.5371 98.1537 95.6245 96.931 95.9507 95.955C96.0755 95.2029 95.8959 94.4326 95.4505 93.8099C94.7675 92.8426 93.8161 92.0903 92.7103 91.6433Z" fill="#D0D2D3"/>
<path d="M75.027 146.462C35.5737 146.462 3.49023 114.383 3.49023 74.9451C3.49023 35.5069 35.5737 3.48438 75.027 3.48438C114.48 3.48438 146.508 35.563 146.508 75.0012C146.508 114.439 114.425 146.462 75.027 146.462Z" fill="white"/>
<path d="M75.0277 150C33.6904 150 0 116.348 0 75C0 33.6517 33.635 0 75.0277 0C116.365 0 150 33.6517 150 75C150 116.348 116.365 150 75.0277 150ZM75.0277 7.02247C37.5139 7.02247 6.9819 37.5281 6.9819 75C6.9819 112.472 37.5139 142.978 75.0277 142.978C112.542 142.978 143.018 112.472 143.018 75C143.018 37.4719 112.486 7.02247 75.0277 7.02247Z" fill="url(#paint0_linear_153_5788)"/>
<path d="M66.273 15.8135L72.6148 24.1105C57.84 30.4071 38.9396 42.5912 28.2903 65.6409C28.1736 65.8916 28.1074 66.1629 28.0957 66.4392C28.0839 66.7155 28.1267 66.9914 28.2217 67.2511C28.3168 67.5109 28.4621 67.7493 28.6494 67.9528C28.8367 68.1562 29.0623 68.3208 29.3132 68.4369C29.5883 68.5615 29.8864 68.6273 30.1883 68.6301C30.5894 68.6307 30.9823 68.5165 31.3206 68.301C31.659 68.0855 31.9286 67.7777 32.0977 67.414C42.1446 45.8191 59.8289 34.226 73.8536 28.168L73.399 38.329C77.1609 32.2143 84.1619 25.3607 90.0945 20.7803C82.5025 20.3598 72.8421 18.7004 66.273 15.8135Z" fill="#767676"/>
<path d="M96.0725 121.673L95.5497 121.9L94.3223 122.389L93.5608 122.673L98.4933 134.118C98.6004 134.358 98.7742 134.561 98.9939 134.704C99.2136 134.847 99.4699 134.924 99.7321 134.925C99.9147 134.922 100.095 134.888 100.266 134.823C100.594 134.681 100.852 134.414 100.985 134.082C101.117 133.75 101.112 133.379 100.971 133.05L96.0725 121.673Z" fill="#D0D2D3"/>
<path d="M113.256 125.572L106.437 116.389L105.164 117.287L111.983 126.493C112.057 126.589 112.151 126.668 112.259 126.723C112.368 126.779 112.487 126.808 112.608 126.811C112.776 126.814 112.939 126.762 113.074 126.663C113.159 126.604 113.231 126.529 113.286 126.442C113.341 126.355 113.378 126.258 113.395 126.156C113.412 126.054 113.408 125.95 113.385 125.85C113.361 125.75 113.317 125.655 113.256 125.572Z" fill="#D0D2D3"/>
<path d="M83.9775 125.266L82.4545 125.493L81.8635 125.573L84.1366 138.223C84.1855 138.54 84.3466 138.829 84.5906 139.038C84.8346 139.247 85.1453 139.361 85.4663 139.36C85.5455 139.37 85.6258 139.37 85.705 139.36C85.8824 139.333 86.0529 139.272 86.2065 139.179C86.36 139.087 86.4935 138.964 86.5993 138.819C86.7051 138.674 86.781 138.51 86.8226 138.335C86.8641 138.161 86.8706 137.98 86.8415 137.803L84.5684 125.221L83.9775 125.266Z" fill="#D0D2D3"/>
<path d="M90.4003 123.743L89.4911 124.005L88.3545 124.311L87.7749 124.459L91.4004 136.564C91.4846 136.84 91.6544 137.082 91.8852 137.256C92.116 137.43 92.3959 137.526 92.6847 137.53C92.8168 137.546 92.9504 137.546 93.0825 137.53C93.4222 137.422 93.7064 137.186 93.8742 136.872C94.042 136.557 94.0801 136.19 93.9803 135.848L90.4003 123.743Z" fill="#D0D2D3"/>
<path d="M101.367 119.334L101.117 119.47L99.7646 120.221L99.5032 120.357L105.481 130.722C105.581 130.878 105.717 131.007 105.877 131.098C106.037 131.189 106.218 131.239 106.402 131.245C106.589 131.247 106.773 131.2 106.936 131.109C107.057 131.039 107.163 130.946 107.247 130.835C107.331 130.724 107.391 130.596 107.425 130.461C107.462 130.326 107.472 130.186 107.454 130.047C107.437 129.909 107.392 129.775 107.322 129.654L101.367 119.334Z" fill="#D0D2D3"/>
<path d="M64.6578 124.788L64.0782 124.663L61.8051 137.836C61.772 138.009 61.7741 138.186 61.8112 138.358C61.8483 138.53 61.9197 138.693 62.0211 138.836C62.1209 138.982 62.2487 139.106 62.397 139.201C62.5453 139.297 62.7111 139.362 62.8848 139.393H63.1349C63.4539 139.391 63.7619 139.276 64.0035 139.068C64.2451 138.859 64.4046 138.572 64.4532 138.257L66.7263 125.129L66.1694 125.027L64.6578 124.788Z" fill="#D0D2D3"/>
<path d="M43.0634 115.275L35.1077 125.993C35.0206 126.109 34.9675 126.246 34.9545 126.39C34.9416 126.534 34.9692 126.678 35.0343 126.808C35.0994 126.937 35.1993 127.045 35.3228 127.12C35.4463 127.195 35.5883 127.234 35.7328 127.232C35.8539 127.234 35.9738 127.208 36.0825 127.154C36.1912 127.101 36.2856 127.022 36.3579 126.925L44.3136 116.219C43.9044 115.912 43.4953 115.594 43.0634 115.275Z" fill="#D0D2D3"/>
<path d="M49.4397 119.229L48.11 118.445L47.86 118.286L41.0977 130.004C41.0265 130.125 40.9801 130.258 40.961 130.397C40.9419 130.536 40.9506 130.677 40.9866 130.812C41.0225 130.948 41.085 131.075 41.1704 131.186C41.2558 131.297 41.3625 131.39 41.4841 131.459C41.732 131.583 42.0167 131.612 42.2846 131.541C42.5525 131.47 42.7852 131.303 42.9388 131.073L49.6898 119.366L49.4397 119.229Z" fill="#D0D2D3"/>
<path d="M78.0248 125.583H76.8087H75.604L76.3768 138.904C76.4001 139.319 76.5815 139.709 76.8839 139.995C77.1862 140.28 77.5863 140.439 78.0021 140.438H78.093C78.3096 140.429 78.5222 140.376 78.7176 140.283C78.913 140.189 79.0872 140.056 79.2295 139.892C79.512 139.583 79.6628 139.175 79.65 138.756L78.8772 125.549L78.0248 125.583Z" fill="#D0D2D3"/>
<path d="M54.8506 121.639C54.3733 121.435 53.9073 121.23 53.4413 121.003L52.9072 120.753L47.486 133.323C47.3556 133.652 47.3556 134.018 47.486 134.346C47.5832 134.602 47.7561 134.821 47.9816 134.976C48.207 135.13 48.4743 135.212 48.7475 135.21C49.0113 135.209 49.2691 135.132 49.4892 134.986C49.7093 134.841 49.8821 134.634 49.9863 134.392L55.3848 121.89L54.8506 121.639Z" fill="#D0D2D3"/>
<path d="M70.5448 125.403L69.6697 125.323L68.8855 138.803C68.866 139.221 69.0131 139.63 69.2947 139.94C69.5885 140.262 69.996 140.458 70.4312 140.485C70.8461 140.483 71.2448 140.323 71.5465 140.039C71.8482 139.754 72.0305 139.365 72.0564 138.951L72.8406 125.528L71.9996 125.471L70.5448 125.403Z" fill="#D0D2D3"/>
<path d="M59.1781 123.298L58.3712 123.025L54.4843 135.994C54.3819 136.337 54.4202 136.708 54.5907 137.023C54.7612 137.338 55.0499 137.573 55.3935 137.676C55.5154 137.711 55.6416 137.73 55.7685 137.733C56.0593 137.731 56.3418 137.636 56.5749 137.462C56.8079 137.288 56.9794 137.045 57.0642 136.767L60.9284 123.855L60.3942 123.685L59.1781 123.298Z" fill="#D0D2D3"/>
<path d="M82.2161 113.4H65.9183C65.5132 113.402 65.1157 113.511 64.767 113.718C64.4184 113.924 64.1313 114.22 63.9354 114.575C63.7395 114.929 63.642 115.33 63.6529 115.735C63.6639 116.14 63.7829 116.535 63.9976 116.878L72.1465 129.813C72.3516 130.136 72.6352 130.403 72.971 130.588C73.3068 130.773 73.6839 130.87 74.0672 130.87C74.4563 130.875 74.8403 130.781 75.1826 130.596C75.5249 130.411 75.8139 130.141 76.022 129.813L84.1596 116.935C84.3738 116.592 84.4928 116.199 84.5042 115.795C84.5156 115.39 84.4191 114.991 84.2246 114.636C84.03 114.282 83.7445 113.986 83.3975 113.779C83.0504 113.571 82.6544 113.46 82.2502 113.457L82.2161 113.4Z" fill="#767676"/>
<path d="M125.846 51.3873C125.647 50.5999 125.257 49.8738 124.71 49.2732C123.448 47.807 123.221 45.4089 123.039 43.2948L122.982 42.6584C122.746 40.9463 122.158 39.3019 121.254 37.8288C120.35 36.3558 119.151 35.0861 117.732 34.0999C117.425 33.884 117.141 33.6794 116.856 33.5089C115.788 32.8042 115.504 32.611 115.72 31.5426C115.777 31.3267 116.004 30.7357 116.22 30.1788C116.799 28.799 117.248 27.3683 117.561 25.9052C117.567 25.8334 117.567 25.7611 117.561 25.6893C117.563 25.558 117.538 25.4278 117.488 25.3064C117.438 25.185 117.364 25.0748 117.271 24.9825C117.178 24.8903 117.067 24.8177 116.945 24.7693C116.823 24.7208 116.692 24.6974 116.561 24.7005C116.355 24.6987 116.155 24.7668 115.993 24.8937C115.045 25.6304 114.166 26.4522 113.367 27.3487C112.726 28.0932 112.019 28.778 111.253 29.3945C108.617 31.304 105.571 33.0884 102.991 34.6455C100.535 35.9067 98.4272 37.753 96.8537 40.0215C95.294 42.3291 93.9074 44.749 92.7054 47.2615C92.5349 47.6252 92.3758 48.0344 92.2053 48.3981C91.8163 49.2458 91.3442 50.053 90.796 50.8076C88.3184 55.1493 78.0897 54.331 66.929 53.6831C59.4357 53.1032 51.9634 55.0434 45.6987 59.1955C45.2412 59.5035 44.8046 59.8414 44.3917 60.2071C43.845 60.7959 43.1241 61.1942 42.3346 61.3437C39.362 61.0845 36.4694 60.2426 33.822 58.8659C31.8483 57.9264 30.1221 56.5374 28.782 54.8103C27.4418 53.0833 26.525 51.0662 26.105 48.9209C25.8218 47.1698 25.6849 45.3982 25.6959 43.6244V43.4312C25.7241 42.9277 25.7241 42.4231 25.6959 41.9196C25.5936 41.0671 25.4231 39.6464 24.2639 39.6464C23.6729 39.6464 22.8659 39.6464 22.1272 44.3405C20.9907 51.7964 22.7636 58.6841 27.1506 63.7646C29.1623 66.1627 35.6632 70.9932 40.3911 71.8456L40.6753 72.9822C40.6753 73.0617 40.7889 73.1186 40.8003 73.1981C41.4446 76.6351 42.9413 79.8552 45.1532 82.5635C48.8923 86.8029 50.3471 88.7124 48.5627 93.2019C48.4876 93.3777 48.3499 93.5194 48.1763 93.5997C48.1763 93.7247 48.1081 93.8611 48.0968 93.952C48.0172 94.2475 48.1877 94.9067 48.881 95.8955C51.154 99.2484 57.6549 103.977 61.6214 104.534V104.647C62.477 104.759 63.3385 104.82 64.2013 104.829C64.6833 104.831 65.1651 104.808 65.6447 104.761C65.8038 104.761 65.997 104.761 66.1789 104.761C66.6269 104.799 67.078 104.741 67.5015 104.59C67.9251 104.439 68.3112 104.199 68.6338 103.886C68.9022 103.596 69.0906 103.241 69.1803 102.857C69.27 102.472 69.2579 102.071 69.1452 101.692C69.081 100.725 68.6356 99.8225 67.9069 99.1833C67.1782 98.544 66.2256 98.22 65.2583 98.2823C64.2538 98.2717 63.2557 98.1226 62.292 97.8391L61.826 97.7141C58.8824 96.9639 58.0073 96.4411 57.7572 96.1797C58.5612 95.2048 59.5121 94.3612 60.5758 93.6792C62.4852 92.2926 64.6446 89.1329 64.7014 86.7688H64.9401C65.1806 86.7637 65.4209 86.7866 65.6561 86.837C70.4323 87.2664 75.2384 87.2435 80.0104 86.7688C82.1357 86.4506 83.7268 86.2233 84.8974 86.1096C90.9096 83.5523 95.6603 83.3705 98.8199 85.405L98.8881 85.3027L99.1835 85.6323C100.01 86.2494 100.709 87.0215 101.241 87.9054C102.775 89.633 104.23 91.3151 104.65 91.7016C106.128 93.0086 109.196 98.0664 110.742 98.8393C113.879 100.442 115.038 102.851 117.913 102.465C119.959 102.192 122.244 98.4756 116.913 94.5089C115.174 93.1791 111.526 87.0871 109.185 83.2568C107.66 80.1647 107.023 76.7103 107.344 73.2777C108.958 71.3228 110.89 67.7426 110.196 63.9805C109.981 62.8439 110.401 60.423 111.015 59.957C112.093 59.2474 113.377 58.9193 114.663 59.025C115.288 59.025 115.925 59.025 116.55 59.0932C117.175 59.1614 117.845 59.1614 118.482 59.1614C120.652 59.1614 123.301 58.7295 124.574 55.3084C124.642 55.1238 124.695 54.9337 124.733 54.7401C124.855 54.6514 124.954 54.5352 125.023 54.401C125.092 54.2668 125.129 54.1182 125.13 53.9673V53.6604L125.187 53.5808C125.458 53.2902 125.658 52.9412 125.772 52.5608C125.887 52.1805 125.912 51.779 125.846 51.3873Z" fill="#D7D7D7"/>
<path d="M90.9199 102.928L91.0842 103H91.2638C91.3723 103 91.5041 102.988 91.6565 102.973C92.0607 102.935 92.6104 102.882 93.2587 103.013C93.6639 103.095 93.9967 103.239 94.233 103.454C94.4403 103.643 94.6267 103.933 94.6901 104.431C94.6707 104.556 94.6123 104.775 94.4317 105.022C94.2207 105.312 93.7995 105.7 92.9368 106.011C91.5404 106.24 90.1278 106.353 88.7129 106.352C88.6711 106.337 88.588 106.307 88.4519 106.248C88.2514 106.16 87.9935 106.037 87.6872 105.883C87.0759 105.576 86.3078 105.165 85.4889 104.719C85.057 104.484 84.61 104.239 84.1661 103.995C82.9448 103.326 81.7472 102.669 80.9507 102.27C80.0587 101.824 78.52 101.133 76.9664 100.435C76.6237 100.281 76.2804 100.127 75.943 99.9753C75.0021 99.5513 74.1036 99.1427 73.3802 98.7992C72.6498 98.4523 72.163 98.2016 71.9702 98.0748C71.3012 97.5714 70.7598 96.9178 70.3898 96.1666L70.3861 96.159L70.3822 96.1516C70.2672 95.9293 70.0326 95.684 69.6598 95.6324C69.3669 95.5919 69.1364 95.698 69.0485 95.7417C68.9424 95.7944 68.8485 95.8593 68.793 95.8983C68.7554 95.9247 68.7313 95.9421 68.7099 95.9575C68.6846 95.9757 68.6632 95.9911 68.628 96.0154C68.5791 96.049 68.5433 96.0707 68.5183 96.0845C68.2259 95.955 67.8999 95.9029 67.5681 95.9753C67.2104 96.0532 66.934 96.2566 66.7389 96.4879C66.3676 96.9282 66.2254 97.5338 66.2254 98.0779V98.1581L66.2403 98.2369C66.4843 99.5237 66.513 100.842 66.3251 102.138L66.2815 102.439L66.4379 102.7C66.6188 103.001 66.8998 103.229 67.2318 103.345C67.5347 103.45 67.8626 103.456 68.1674 103.362C68.5292 103.301 68.9014 103.354 69.2324 103.514C69.5668 103.676 69.8416 103.939 70.0184 104.265C70.1486 104.596 70.2277 104.816 70.2733 104.967C69.3842 105.6 68.3193 105.942 67.2258 105.942L67.2049 105.942L67.184 105.943C65.6052 106.022 64.0235 105.873 62.4871 105.503C62.2831 105.353 62.1137 105.16 61.9908 104.937C61.8476 104.677 61.7722 104.386 61.7718 104.089V104.085V104.079V104.073V104.068V104.062V104.057V104.051V104.045V104.04V104.034V104.028V104.023V104.017V104.012V104.006V104.001V103.995V103.989V103.984V103.978V103.973V103.967V103.962V103.956V103.951V103.945V103.94V103.934V103.929V103.923V103.918V103.912V103.907V103.901V103.896V103.891V103.885V103.88V103.874V103.869V103.863V103.858V103.853V103.847V103.842V103.836V103.831V103.826V103.82V103.815V103.81V103.804V103.799V103.794V103.788V103.783V103.778V103.772V103.767V103.762V103.757V103.751V103.746V103.741V103.736V103.73V103.725V103.72V103.715V103.709V103.704V103.699V103.694V103.689V103.683V103.678V103.673V103.668V103.663V103.658V103.653V103.647V103.642V103.637V103.632V103.627V103.622V103.617V103.612V103.607V103.602V103.597V103.592V103.586V103.581V103.576V103.571V103.566V103.561V103.556V103.551V103.546V103.542V103.537V103.532V103.527V103.522V103.517V103.512V103.507V103.502V103.497V103.492V103.487V103.483V103.478V103.473V103.468V103.463V103.458V103.454V103.449V103.444V103.439V103.434V103.43V103.425V103.42V103.415V103.411V103.406V103.401V103.396V103.392V103.387V103.382V103.378V103.373V103.368V103.364V103.359V103.354V103.35V103.345V103.34V103.336V103.331V103.327V103.322V103.317V103.313V103.308V103.304V103.299V103.295V103.29V103.286V103.281V103.277V103.272V103.268V103.263V103.259V103.254V103.25V103.245V103.241V103.237V103.232V103.228V103.223V103.219V103.215V103.21V103.206V103.202V103.197V103.193V103.189V103.184V103.18V103.176V103.172V103.167V103.163V103.159V103.155V103.15V103.146V103.142V103.138V103.134V103.129V103.125V103.121V103.117V103.113V103.109V103.105V103.101V103.096V103.092V103.088V103.084V103.08V103.076V103.072V103.068V103.064V103.06V103.056V103.052V103.048V103.044V103.04V103.036V103.032V103.028V103.024V103.021V103.017V103.013V103.009V103.005V103.001V102.997V102.994V102.99V102.986V102.982V102.978V102.975V102.971V102.967V102.963V102.96V102.956V102.952V102.948V102.945V102.941V102.937V102.934V102.93V102.926V102.923V102.919V102.916V102.912V102.908V102.905V102.901V102.898V102.894V102.891V102.887V102.884V102.88V102.877V102.873V102.87V102.866V102.863V102.859V102.856V102.852V102.849V102.846V102.842V102.839V102.836V102.832V102.829V102.826V102.822V102.819V102.816V102.812V102.809V102.806V102.803V102.8V102.796V102.793V102.79V102.787V102.784V102.78V102.777V102.774V102.771V102.768V102.765V102.762V102.759V102.756V102.753V102.75V102.747V102.743V102.74V102.738V102.735V102.732V102.729V102.726V102.723V102.72V102.717V102.714V102.711V102.708V102.705V102.703V102.7V102.697V102.694V102.691V102.689V102.686V102.683V102.68V102.678V102.675V102.672V102.669V102.667V102.664V102.661V102.659V102.656V102.654V102.651V102.648V102.646V102.643V102.641V102.638V102.636V102.633V102.631V102.628V102.626V102.623V102.621V102.618V102.616V102.613V102.611V102.609V102.606V102.604V102.601V102.599V102.597V102.595V102.592V102.59V102.588V102.585V102.583V102.581V102.579V102.577V102.574V102.572V102.57V102.568V102.566V102.564V102.561V102.559V102.557V102.555V102.553V102.551V102.549V102.547V102.545V102.543V102.541V102.539V102.537V102.535V102.533V102.531V102.53V102.528V102.526V102.524V102.522V102.52V102.518V102.517V102.515V102.513V102.511V102.51V102.508V102.506V102.504V102.503V102.501V102.499V102.498V102.496V102.495V102.493V102.491V102.49V102.488V102.487V102.485V102.484V102.482V102.481V102.479V102.478V102.476V102.475V102.474V102.472V102.471V102.469V102.468V102.467V102.465V102.464V102.463V102.461V102.46V102.459V102.458V102.456V102.455V102.454V102.453V102.452V102.451V102.449V102.448V102.447V102.446V102.445V102.444V102.443V102.442V102.441V102.44V102.439V102.438V102.437V102.436V102.435V102.434V102.433V102.432V102.432V102.431V102.43V102.429V102.428V102.428V102.427V102.426V102.425V102.425V102.424V102.423V102.422V102.422V102.421V102.421V102.42V102.419V102.419V102.418V102.418V102.417V102.417V102.416V102.416V102.415V102.415V102.414V102.414V102.413V102.413V102.413V102.412V102.412V102.412V102.411V102.411V102.411V102.41V102.41V102.41V102.41V102.409V102.409V102.409V102.409V102.409V102.409V102.409V102.408V102.408V102.408V102.408L60.9186 102.408H61.7718L61.7718 102.403C61.7692 101.968 61.7893 101.533 61.8318 101.101C61.8576 100.952 61.8561 100.804 61.8523 100.703C61.847 100.561 61.8316 100.404 61.8096 100.243C61.7654 99.9203 61.6889 99.541 61.585 99.1721C61.4831 98.8106 61.3436 98.4181 61.1596 98.0914C61.0677 97.9282 60.9472 97.7497 60.7895 97.5974C60.633 97.4464 60.3916 97.2757 60.0653 97.2322L60.0157 97.2256L59.9656 97.2248C59.1003 97.2116 58.2358 97.2806 57.3836 97.4309L57.2904 97.4474L57.2081 97.4817L57.2065 97.4824L57.2057 97.4827C57.2016 97.4843 57.1926 97.4878 57.1785 97.4929C57.1502 97.5033 57.1019 97.5202 57.0329 97.542C56.8949 97.5855 56.6744 97.6483 56.3677 97.7151C55.7546 97.8487 54.7955 97.9991 53.4621 98.045C50.7958 98.1367 46.6246 97.8106 40.7229 96.0882L40.6499 96.0669L40.5742 96.0589C39.6903 95.9647 38.8127 95.8185 37.9459 95.6208L37.4929 95.5175L37.1604 95.842C35.8569 97.1139 34.4195 98.2409 32.8734 99.2032C32.619 99.3407 32.2001 99.5905 31.932 99.9775C31.779 100.198 31.6527 100.496 31.6653 100.853C31.6774 101.197 31.8151 101.5 32.0103 101.754C32.3285 102.214 32.7365 102.604 33.2098 102.903L33.4865 103.077L33.8089 103.022C34.6184 102.883 35.4423 102.849 36.2603 102.921C36.7756 103.081 37.13 103.588 37.2297 104.359C37.2794 104.743 37.252 105.132 37.1672 105.456C37.0893 105.753 36.9809 105.931 36.9022 106.016C36.5436 106.24 36.1614 106.424 35.7624 106.564C34.2275 106.9 32.6596 107.061 31.0885 107.045C30.0108 106.93 28.964 106.617 28.0007 106.121C27.2953 105.426 26.6307 104.691 26.0103 103.919L25.5401 103.335L24.9001 103.726C24.3562 104.059 23.7282 104.229 23.0908 104.215L23.0708 104.214L23.0507 104.215C22.7164 104.223 22.3838 104.163 22.0735 104.039C21.7743 103.919 21.5019 103.741 21.2717 103.515C20.7153 102.834 20.395 101.99 20.3585 101.111C20.5521 99.3965 20.9154 97.7049 21.4428 96.0616C21.7081 95.4046 21.8389 95.003 21.9019 94.7474C21.9337 94.6182 21.9543 94.5027 21.9603 94.3965C21.9634 94.3422 21.9634 94.2784 21.9548 94.2088C21.8695 92.9079 22.1993 91.6141 22.8954 90.5134C22.9397 90.4751 22.9933 90.4292 23.0537 90.3777C23.2868 90.1783 23.6189 89.8945 23.8864 89.6376C24.2789 89.2607 24.7903 88.7141 24.9944 88.1107L24.9993 88.0962L25.0036 88.0816C25.2485 87.2619 25.4004 86.4173 25.4565 85.5638L25.6495 83.9773L26.2766 81.8757L26.3244 81.7154L26.3082 81.549L26.1496 79.9204L26.5806 77.6526L27.3292 76.2186L27.3979 76.087L27.4181 75.9399L27.7818 73.2916L27.818 73.028L27.6979 72.7905C26.7207 70.8585 25.6705 68.6418 24.8568 66.595C24.0295 64.5138 23.4939 62.7208 23.4592 61.5904L23.4592 61.5904L23.4587 61.5782C23.4557 61.5114 23.4527 61.4448 23.4497 61.3782C23.3487 59.1462 23.2528 57.0257 23.7686 54.9959C24.2853 52.9624 25.4294 50.9878 27.9448 49.1763C28.1948 49.0247 28.4857 48.9538 28.7778 48.9737C29.0487 48.9921 29.308 49.0878 29.5254 49.2485C29.526 49.2531 29.5266 49.2583 29.5272 49.2642C29.5343 49.3407 29.5245 49.4592 29.488 49.6118C29.4529 49.7581 29.4024 49.8989 29.3584 50.0063C29.347 50.0341 29.3364 50.0588 29.3271 50.0798L29.133 50.3075C29.0911 50.3408 29.0407 50.3832 28.9838 50.4357C28.848 50.5607 28.6753 50.742 28.4903 50.9912C28.1187 51.4919 27.7076 52.2537 27.4423 53.3592C26.9132 55.5638 26.9752 59.0808 28.9835 64.58C29.7709 66.9442 31.1545 69.0655 33.0009 70.739L33.1321 70.8579L33.2997 70.9148L38.4254 72.6537L38.4709 72.6692L38.5179 72.6794L41.4388 73.3159L41.4466 73.3176L41.4545 73.3192C41.8603 73.3996 42.4192 73.5337 43.054 73.686C43.3774 73.7636 43.7205 73.8459 44.073 73.9282C45.0792 74.1633 46.1684 74.3998 46.9309 74.4686C47.6471 74.5331 50.1211 74.6591 52.385 74.768C53.5237 74.8227 54.619 74.8735 55.4296 74.9107C55.8348 74.9292 56.169 74.9444 56.4018 74.9549L56.6714 74.967L56.7421 74.9702L56.7602 74.971L56.7648 74.9712L56.766 74.9712L56.7663 74.9713C56.7663 74.9713 56.7664 74.9713 56.8044 74.1189L56.7664 74.9713L56.7892 74.9723L56.812 74.9721L60.608 74.938L60.6681 74.9374L60.7274 74.9285L62.5851 74.6487L62.5944 74.648L62.7034 74.639C62.7975 74.6313 62.9321 74.6201 63.0948 74.6062C63.4202 74.5786 63.8588 74.5404 64.3109 74.4982C64.7619 74.456 65.2307 74.4096 65.6148 74.3654C65.8063 74.3433 65.9823 74.3213 66.1268 74.2999C66.2395 74.2833 66.3826 74.2605 66.4994 74.2284C66.5089 74.2273 66.5286 74.2252 66.5609 74.2233C66.6336 74.219 66.7321 74.217 66.8596 74.217C66.9798 74.217 67.1132 74.2187 67.2612 74.2206L67.2833 74.2208C67.4379 74.2228 67.6056 74.2248 67.7761 74.2248C68.1128 74.2248 68.485 74.2171 68.8237 74.1809C69.1287 74.1483 69.5417 74.0815 69.8701 73.8844C70.0325 73.787 70.2352 73.6079 70.3986 73.4626C70.4744 73.3951 70.5813 73.2987 70.6987 73.1928C70.8303 73.0741 70.9752 72.9434 71.1045 72.8281C71.6587 72.3339 72.376 71.7152 73.2078 71.0994C74.8961 69.8494 76.9503 68.6923 78.9799 68.5249L78.9863 68.5243C79.0716 68.5166 79.1561 68.509 79.2398 68.5014C80.2863 68.4067 81.2098 68.3231 82.092 68.3231H82.387L82.619 68.141C84.4058 66.7377 86.3588 65.5611 88.4334 64.6376C88.0822 65.8141 87.6551 66.9668 87.1546 68.0884L86.8008 68.8814L87.5999 69.2212C88.1701 69.4636 88.6993 69.7926 89.1691 70.1963C90.9512 72.0032 92.1234 74.3224 92.5214 76.8292C92.5183 76.8381 92.5076 76.9111 92.4397 77.0855C92.3824 77.2326 92.3269 77.3559 92.2618 77.5006C92.2055 77.6257 92.1419 77.7669 92.0638 77.9533C91.7919 78.6021 91.4347 79.6036 91.8174 80.6242C91.8939 80.8282 91.965 81.0083 92.0295 81.1714C92.2131 81.6362 92.3425 81.9639 92.388 82.3184C92.4348 82.684 92.3832 83.0859 91.9427 83.6652C90.9309 84.9397 89.4876 85.7994 87.8857 86.0823C87.2317 86.1501 86.4487 86.3314 85.7565 86.4918C85.6478 86.5169 85.5414 86.5416 85.438 86.5652C85.0346 86.6574 84.6709 86.7361 84.3599 86.7856C84.032 86.8377 83.8382 86.8439 83.7476 86.8322L83.6891 86.8246L83.6302 86.8251C82.6359 86.8339 81.6468 86.9699 80.687 87.2298L80.1949 87.3631L80.0792 87.8596L80.9101 88.0533C80.0792 87.8596 80.0791 87.8598 80.0791 87.86L80.079 87.8604L80.0787 87.8616L80.0779 87.8648L80.0755 87.8754L80.0673 87.9122C80.0604 87.9436 80.0508 87.9883 80.0391 88.0452C80.0157 88.159 79.984 88.3217 79.9494 88.5231C79.8802 88.925 79.7985 89.4859 79.7484 90.1232C79.6509 91.3625 79.6599 93.0307 80.2271 94.3654L80.3091 94.5583L80.4711 94.6913C80.9279 95.0661 81.9124 95.8259 82.7695 96.4822C83.2009 96.8125 83.6045 97.12 83.9001 97.3448L84.2528 97.6128L84.3499 97.6864L84.3753 97.7057L84.3818 97.7106L84.3835 97.7119L84.3839 97.7122L84.384 97.7123L84.8993 97.0323L84.384 97.7123L84.4201 97.7397L84.4589 97.763C85.8778 98.6182 87.0981 99.7663 88.0381 101.131L88.1137 101.24L88.2189 101.322C89.0508 101.965 89.9577 102.504 90.9199 102.928ZM68.4708 96.1068C68.471 96.1066 68.4735 96.1055 68.4782 96.1044C68.473 96.1065 68.4707 96.107 68.4708 96.1068ZM29.5205 49.223C29.52 49.2219 29.5199 49.2213 29.5199 49.2213L29.5205 49.223ZM88.7944 64.5457C88.7945 64.5458 88.7929 64.5454 88.7899 64.5443C88.793 64.5451 88.7944 64.5456 88.7944 64.5457Z" fill="#F9CEDA" stroke="#F07A9D" stroke-width="1.70638"/>
<path d="M82.2066 115.673L74.069 128.55L65.9202 115.673H82.2066Z" fill="white"/>
<path d="M159.999 134.287C152.104 134.287 145.701 127.887 145.701 119.976C145.701 112.065 152.104 105.665 159.999 105.665C167.894 105.665 174.297 112.065 174.297 119.976C174.297 127.887 167.894 134.287 159.999 134.287Z" fill="white"/>
<path d="M160 135C151.711 135 145 128.244 145 119.978C145 111.711 151.711 105 160 105C168.289 105 175 111.711 175 119.978C175 128.244 168.289 135 160 135ZM160 106.378C152.5 106.378 146.404 112.467 146.404 119.978C146.404 127.489 152.5 133.578 160 133.578C167.5 133.578 173.596 127.489 173.596 119.978C173.596 112.511 167.5 106.378 160 106.378Z" fill="#878787"/>
<mask id="path-24-outside-1_153_5788" maskUnits="userSpaceOnUse" x="152.972" y="111.787" width="13" height="17" fill="black">
<rect fill="white" x="152.972" y="111.787" width="13" height="17"/>
<path fill-rule="evenodd" clip-rule="evenodd" d="M162.125 119.534L161.977 119.566C161.794 119.65 161.712 119.868 161.794 120.053C161.806 120.08 162.967 122.768 161.42 124.601C161.356 124.676 161.325 124.772 161.332 124.871C161.34 124.968 161.386 125.058 161.459 125.123C161.605 125.248 161.846 125.231 161.971 125.083C163.818 122.893 162.514 119.878 162.456 119.75C162.396 119.615 162.263 119.534 162.125 119.534ZM161.695 125.78C161.474 125.78 161.261 125.7 161.094 125.555C160.907 125.392 160.793 125.165 160.771 124.915C160.753 124.665 160.831 124.421 160.992 124.231C162.294 122.689 161.291 120.308 161.28 120.285C161.074 119.814 161.283 119.258 161.746 119.047C162.206 118.835 162.754 119.045 162.965 119.515C163.029 119.658 164.472 122.991 162.396 125.452C162.219 125.66 161.964 125.78 161.695 125.78ZM159.391 113.365C158.655 113.69 154.535 119.731 154.535 122.423C154.535 125.041 156.817 127.171 159.621 127.171C162.424 127.171 164.706 125.041 164.706 122.423C164.706 119.792 160.164 113.799 159.391 113.365ZM159.619 127.741C156.506 127.741 153.972 125.355 153.972 122.423C153.972 119.822 157.503 114.249 158.825 113.085C159.083 112.856 159.277 112.767 159.461 112.791C160.393 112.928 165.266 119.667 165.266 122.423C165.266 125.355 162.733 127.741 159.619 127.741Z"/>
</mask>
<path fill-rule="evenodd" clip-rule="evenodd" d="M162.125 119.534L161.977 119.566C161.794 119.65 161.712 119.868 161.794 120.053C161.806 120.08 162.967 122.768 161.42 124.601C161.356 124.676 161.325 124.772 161.332 124.871C161.34 124.968 161.386 125.058 161.459 125.123C161.605 125.248 161.846 125.231 161.971 125.083C163.818 122.893 162.514 119.878 162.456 119.75C162.396 119.615 162.263 119.534 162.125 119.534ZM161.695 125.78C161.474 125.78 161.261 125.7 161.094 125.555C160.907 125.392 160.793 125.165 160.771 124.915C160.753 124.665 160.831 124.421 160.992 124.231C162.294 122.689 161.291 120.308 161.28 120.285C161.074 119.814 161.283 119.258 161.746 119.047C162.206 118.835 162.754 119.045 162.965 119.515C163.029 119.658 164.472 122.991 162.396 125.452C162.219 125.66 161.964 125.78 161.695 125.78ZM159.391 113.365C158.655 113.69 154.535 119.731 154.535 122.423C154.535 125.041 156.817 127.171 159.621 127.171C162.424 127.171 164.706 125.041 164.706 122.423C164.706 119.792 160.164 113.799 159.391 113.365ZM159.619 127.741C156.506 127.741 153.972 125.355 153.972 122.423C153.972 119.822 157.503 114.249 158.825 113.085C159.083 112.856 159.277 112.767 159.461 112.791C160.393 112.928 165.266 119.667 165.266 122.423C165.266 125.355 162.733 127.741 159.619 127.741Z" fill="#767676"/>
<path d="M161.977 119.566L161.941 119.399L161.923 119.403L161.906 119.411L161.977 119.566ZM161.794 120.053L161.638 120.122L161.639 120.124L161.794 120.053ZM161.42 124.601L161.55 124.712L161.551 124.711L161.42 124.601ZM161.332 124.871L161.162 124.884L161.162 124.885L161.332 124.871ZM161.459 125.123L161.345 125.251L161.348 125.253L161.459 125.123ZM161.971 125.083L161.84 124.973L161.84 124.973L161.971 125.083ZM162.456 119.75L162.299 119.819L162.3 119.821L162.456 119.75ZM161.094 125.555L160.982 125.684L160.983 125.685L161.094 125.555ZM160.771 124.915L160.601 124.928L160.601 124.93L160.771 124.915ZM160.992 124.231L160.861 124.121L160.992 124.231ZM161.28 120.285L161.124 120.353L161.125 120.355L161.28 120.285ZM161.746 119.047L161.817 119.202L161.818 119.202L161.746 119.047ZM162.965 119.515L163.121 119.446L163.121 119.445L162.965 119.515ZM162.396 125.452L162.525 125.563L162.526 125.562L162.396 125.452ZM158.825 113.085L158.938 113.213L158.938 113.212L158.825 113.085ZM159.461 112.791L159.486 112.622L159.482 112.622L159.461 112.791ZM162.089 119.368L161.941 119.399L162.013 119.733L162.161 119.701L162.089 119.368ZM161.906 119.411C161.637 119.533 161.518 119.853 161.638 120.122L161.95 119.984C161.905 119.883 161.951 119.766 162.048 119.721L161.906 119.411ZM161.639 120.124C161.638 120.123 161.711 120.289 161.795 120.567C161.879 120.844 161.974 121.229 162.022 121.668C162.118 122.55 162.021 123.625 161.29 124.491L161.551 124.711C162.367 123.744 162.462 122.559 162.361 121.631C162.26 120.703 161.96 120.006 161.949 119.982L161.639 120.124ZM161.291 124.49C161.197 124.6 161.152 124.739 161.162 124.884L161.502 124.859C161.498 124.804 161.515 124.753 161.55 124.712L161.291 124.49ZM161.162 124.885C161.174 125.027 161.24 125.157 161.345 125.251L161.572 124.996C161.531 124.959 161.506 124.91 161.502 124.857L161.162 124.885ZM161.348 125.253C161.565 125.438 161.915 125.415 162.102 125.192L161.84 124.973C161.778 125.047 161.646 125.059 161.57 124.994L161.348 125.253ZM162.101 125.193C163.065 124.05 163.203 122.696 163.098 121.627C162.993 120.558 162.644 119.753 162.611 119.68L162.3 119.821C162.325 119.875 162.658 120.642 162.758 121.66C162.858 122.678 162.723 123.926 161.84 124.973L162.101 125.193ZM162.612 119.681C162.523 119.482 162.328 119.364 162.125 119.364V119.705C162.197 119.705 162.268 119.748 162.299 119.819L162.612 119.681ZM161.695 125.61C161.516 125.61 161.342 125.544 161.206 125.426L160.983 125.685C161.18 125.855 161.432 125.951 161.695 125.951V125.61ZM161.206 125.427C161.053 125.293 160.959 125.107 160.941 124.901L160.601 124.93C160.626 125.223 160.761 125.491 160.982 125.684L161.206 125.427ZM160.941 124.903C160.927 124.696 160.991 124.497 161.122 124.341L160.861 124.121C160.671 124.346 160.58 124.634 160.601 124.928L160.941 124.903ZM161.122 124.341C161.817 123.518 161.889 122.481 161.798 121.669C161.706 120.856 161.446 120.237 161.435 120.214L161.125 120.355C161.124 120.353 161.186 120.499 161.259 120.743C161.332 120.987 161.415 121.325 161.459 121.708C161.546 122.478 161.469 123.402 160.861 124.121L161.122 124.341ZM161.436 120.216C161.267 119.83 161.44 119.374 161.817 119.202L161.676 118.892C161.126 119.142 160.881 119.799 161.124 120.353L161.436 120.216ZM161.818 119.202C162.189 119.031 162.636 119.199 162.81 119.585L163.121 119.445C162.871 118.891 162.223 118.639 161.675 118.892L161.818 119.202ZM162.809 119.584C162.837 119.648 163.206 120.497 163.313 121.63C163.42 122.763 163.263 124.159 162.265 125.342L162.526 125.562C163.604 124.284 163.764 122.783 163.653 121.598C163.541 120.414 163.157 119.526 163.121 119.446L162.809 119.584ZM162.266 125.341C162.12 125.512 161.912 125.61 161.695 125.61V125.951C162.016 125.951 162.317 125.807 162.525 125.563L162.266 125.341ZM159.322 113.209C159.251 113.241 159.176 113.298 159.102 113.364C159.025 113.432 158.939 113.519 158.845 113.623C158.657 113.83 158.432 114.107 158.185 114.437C157.691 115.096 157.104 115.971 156.54 116.919C155.977 117.867 155.434 118.892 155.033 119.852C154.633 120.807 154.364 121.715 154.364 122.423H154.705C154.705 121.785 154.952 120.929 155.347 119.984C155.741 119.043 156.275 118.033 156.834 117.094C157.392 116.155 157.973 115.29 158.458 114.641C158.701 114.317 158.919 114.048 159.097 113.852C159.187 113.754 159.264 113.676 159.329 113.619C159.396 113.559 159.439 113.531 159.46 113.522L159.322 113.209ZM154.364 122.423C154.364 125.146 156.734 127.341 159.621 127.341V127C156.9 127 154.705 124.936 154.705 122.423H154.364ZM159.621 127.341C162.507 127.341 164.877 125.146 164.877 122.423H164.536C164.536 124.936 162.341 127 159.621 127V127.341ZM164.877 122.423C164.877 121.726 164.579 120.829 164.139 119.887C163.697 118.938 163.1 117.921 162.481 116.977C161.862 116.031 161.219 115.155 160.681 114.487C160.412 114.152 160.168 113.869 159.966 113.654C159.769 113.446 159.597 113.285 159.474 113.217L159.308 113.514C159.378 113.554 159.517 113.676 159.717 113.888C159.911 114.094 160.149 114.371 160.415 114.701C160.946 115.36 161.583 116.227 162.196 117.164C162.809 118.1 163.397 119.102 163.83 120.031C164.266 120.965 164.536 121.805 164.536 122.423H164.877ZM159.619 127.57C156.59 127.57 154.143 125.251 154.143 122.423H153.802C153.802 125.459 156.421 127.912 159.619 127.912V127.57ZM154.143 122.423C154.143 121.805 154.354 120.993 154.704 120.092C155.052 119.195 155.53 118.226 156.052 117.299C156.573 116.372 157.135 115.49 157.648 114.768C158.164 114.043 158.623 113.49 158.938 113.213L158.712 112.956C158.366 113.261 157.888 113.842 157.37 114.57C156.85 115.302 156.281 116.194 155.754 117.131C155.228 118.068 154.741 119.052 154.385 119.969C154.032 120.881 153.802 121.741 153.802 122.423H154.143ZM158.938 113.212C159.188 112.991 159.332 112.946 159.439 112.96L159.482 112.622C159.222 112.588 158.978 112.721 158.712 112.957L158.938 113.212ZM159.436 112.96C159.456 112.963 159.505 112.98 159.585 113.034C159.662 113.084 159.755 113.159 159.863 113.257C160.078 113.453 160.339 113.732 160.631 114.076C161.213 114.764 161.906 115.699 162.57 116.718C163.234 117.737 163.868 118.834 164.335 119.846C164.805 120.864 165.095 121.773 165.095 122.423H165.436C165.436 121.695 165.118 120.728 164.645 119.703C164.169 118.672 163.526 117.559 162.856 116.532C162.185 115.504 161.485 114.556 160.891 113.856C160.595 113.506 160.323 113.214 160.093 113.005C159.978 112.9 159.871 112.813 159.774 112.749C159.681 112.687 159.582 112.636 159.486 112.622L159.436 112.96ZM165.095 122.423C165.095 125.251 162.648 127.57 159.619 127.57V127.912C162.817 127.912 165.436 125.459 165.436 122.423H165.095Z" fill="#767676" mask="url(#path-24-outside-1_153_5788)"/>
<defs>
<linearGradient id="paint0_linear_153_5788" x1="0.0103066" y1="74.969" x2="149.973" y2="74.969" gradientUnits="userSpaceOnUse">
<stop stop-color="white"/>
<stop offset="0.327" stop-color="#808285"/>
<stop offset="0.5757" stop-color="white"/>
<stop offset="0.8946" stop-color="#808285"/>
</linearGradient>
</defs>
</svg>
