<svg width="210" height="73" fill="none" xmlns="http://www.w3.org/2000/svg"><g clip-path="url(#clip0_71_965)" fill="#E2001A"><path d="M77.747 37.23c-.69 0-1.336-.3-1.81-.902a2.28 2.28 0 01.43-3.134c5.951-4.423 15.093-7.086 24.407-7.086 9.271 0 18.37 2.663 24.32 7.086a2.203 2.203 0 01.432 3.134 2.225 2.225 0 01-3.148.43c-4.011-3.006-11.815-6.184-21.647-6.184-9.875 0-17.68 3.22-21.69 6.184-.345.343-.82.472-1.294.472z"/><path d="M79.817 41.052c-.43 0-.905-.172-1.207-.559-.517-.644-.431-1.631.216-2.147 5.131-4.208 13.367-6.741 21.948-6.741s16.731 2.533 21.906 6.741c.647.516.776 1.503.215 2.147-.517.644-1.509.73-2.156.215-4.614-3.779-12.073-6.055-19.965-6.055-7.805 0-15.48 2.32-20.008 6.055a1.51 1.51 0 01-.949.344zM67.786 8.889a5.01 5.01 0 00-2.587.73 5.138 5.138 0 00-2.372 3.134 5.043 5.043 0 00.56 3.865c.906 1.546 2.588 2.49 4.4 2.534h.042a5.28 5.28 0 002.63-.73 5.138 5.138 0 002.373-3.135 5.044 5.044 0 00-.561-3.865 5.231 5.231 0 00-4.485-2.533zm32.988 3.951c-2.846 0-5.131 2.319-5.131 5.11 0 2.834 2.328 5.11 5.131 5.11 2.846 0 5.131-2.319 5.131-5.11a5.105 5.105 0 00-5.131-5.11zm0-12.84c-2.846 0-5.131 2.319-5.131 5.11 0 2.834 2.328 5.11 5.131 5.11 2.846 0 5.131-2.319 5.131-5.11 0-2.791-2.285-5.11-5.131-5.11zM87.105 14.6c-.475 0-.906.043-1.38.171-2.76.73-4.355 3.564-3.622 6.313.603 2.19 2.63 3.736 4.959 3.779h.129c.431 0 .862-.086 1.25-.172 1.337-.344 2.415-1.203 3.105-2.405a4.96 4.96 0 00.475-3.908c-.561-2.233-2.63-3.778-4.916-3.778zm-12.764 5.325c-.906 0-1.811.258-2.587.73a5.138 5.138 0 00-2.372 3.134 5.044 5.044 0 00.56 3.865c.906 1.546 2.588 2.49 4.399 2.49h.043c.906 0 1.811-.257 2.63-.73a5.138 5.138 0 002.372-3.134 5.043 5.043 0 00-.56-3.865c-.95-1.502-2.674-2.49-4.485-2.49zm41.482-5.111a4.76 4.76 0 00-1.337-.171 5.12 5.12 0 00-4.958 3.778c-.734 2.706.862 5.54 3.622 6.313.431.129.905.171 1.38.171 2.285 0 4.355-1.545 4.959-3.778.689-2.748-.949-5.583-3.666-6.313zm3.407-12.409c-.431-.129-.905-.172-1.38-.172a5.122 5.122 0 00-4.959 3.78c-.733 2.705.863 5.539 3.622 6.312a4.77 4.77 0 001.337.171 5.121 5.121 0 004.959-3.778c.776-2.749-.862-5.54-3.579-6.313zm10.565 18.25a5.05 5.05 0 00-2.631-.73 5.16 5.16 0 00-4.441 2.533c-.69 1.16-.906 2.577-.561 3.865.345 1.331 1.165 2.448 2.372 3.135.776.472 1.682.73 2.63.73a5.162 5.162 0 004.442-2.534c.69-1.16.905-2.576.56-3.864-.345-1.332-1.164-2.448-2.371-3.135zm8.926-7.902c-.345-1.33-1.165-2.447-2.372-3.134a5.049 5.049 0 00-2.63-.73 5.16 5.16 0 00-4.442 2.533c-.69 1.16-.905 2.577-.56 3.865.344 1.331 1.164 2.448 2.371 3.135.776.472 1.682.73 2.631.73a5.16 5.16 0 004.441-2.534c.733-1.16.906-2.533.561-3.865zm-55.023-.257c.474 0 .906-.043 1.337-.171a5.107 5.107 0 003.579-6.313 5.121 5.121 0 00-4.96-3.779c-.473 0-.905.043-1.336.172-2.76.73-4.355 3.564-3.622 6.313.647 2.19 2.674 3.735 5.002 3.778zm88.053 57.198a2.975 2.975 0 002.976 2.963 2.975 2.975 0 002.975-2.963V49.125a2.975 2.975 0 00-5.951 0v20.569zm-79.213-2.749a2.7 2.7 0 012.717 2.705 2.7 2.7 0 01-2.717 2.706H82.405c-.906 0-1.639-.73-1.639-1.632v-21.17a2.883 2.883 0 012.89-2.877 2.883 2.883 0 012.888 2.877v17.004c0 .172.13.344.345.344l5.65.043zm63.431-18.249c-.69-1.203-1.854-1.847-3.407-1.847-2.026 0-3.708 1.632-3.708 3.607v19.495c0 1.504 1.294 2.749 2.803 2.749s2.803-1.246 2.803-2.749V58.057c0-.086.086-.172.172-.172l.13.086 7.115 12.539c.603 1.116 1.811 1.846 3.191 1.846a3.609 3.609 0 003.622-3.607V48.953c0-1.503-1.251-2.748-2.76-2.748s-2.76 1.245-2.76 2.748v11.895l-.172.172-.13-.086-6.899-12.238zm31.953 0c-.69-1.203-1.854-1.847-3.406-1.847-2.027 0-3.709 1.632-3.709 3.607v19.495c0 1.504 1.294 2.749 2.803 2.749s2.803-1.246 2.803-2.749V58.057c0-.086.086-.172.172-.172l.13.086 7.115 12.539c.603 1.116 1.811 1.846 3.191 1.846a3.609 3.609 0 003.622-3.607V48.953c0-1.503-1.251-2.748-2.76-2.748s-2.76 1.245-2.76 2.748v11.895l-.172.172-.13-.086-6.899-12.238zm-135.4 5.796c.086 0 .215-.043.258-.129l6.34-6.655c.473-.516 1.163-.816 1.94-.816 1.509 0 2.716 1.202 2.716 2.662 0 .687-.259 1.331-.733 1.803l-7.719 8.89-.129 9.36a2.7 2.7 0 01-2.717 2.706 2.7 2.7 0 01-2.716-2.706l-.13-9.36-7.718-8.89c-.431-.472-.733-1.116-.733-1.803 0-1.46 1.207-2.662 2.673-2.662.776 0 1.466.3 1.94.816l6.34 6.655c.172.086.258.13.388.13zm-21.777-1.674c-3.794 0-6.899 3.091-6.899 6.87s3.105 6.87 6.9 6.87c3.794 0 6.899-3.091 6.899-6.87s-3.105-6.87-6.9-6.87zm12.807 6.87c0 7.043-5.735 12.754-12.806 12.754-7.072 0-12.807-5.711-12.807-12.754 0-7.042 5.735-12.753 12.806-12.753 7.072 0 12.807 5.71 12.807 12.753zm88.916-2.148v4.21h2.631c.129 0 .258-.087.258-.258l-.043-.13-2.846-3.821zm14.446 10.436c.345.472.56 1.03.56 1.674 0 1.503-1.25 2.749-2.759 2.749-.906 0-1.725-.43-2.2-1.117l-2.975-3.95h-7.029l-.043 2.275c0 1.546-1.423 2.792-2.975 2.792a2.791 2.791 0 01-2.803-2.792V49.124c0-1.631 1.294-2.404 2.932-2.404.906 0 1.682.386 2.242 1.03l15.05 20.226zm-78.308-6.613l-.043.128c0 .13.086.215.258.215h2.63v-4.165l-2.845 3.822zm3.493-13.699a2.996 2.996 0 012.242-1.03 2.902 2.902 0 012.932 2.92v20.01a2.791 2.791 0 01-2.803 2.792c-1.552 0-2.975-1.246-2.975-2.792l-.043-2.275h-7.029l-2.975 3.95c-.518.687-1.294 1.117-2.2 1.117-1.509 0-2.76-1.246-2.76-2.749 0-.644.216-1.202.561-1.674L72.1 47.664zm30.788 12.11c0 7.944 6.727 12.668 12.074 12.668 3.665 0 7.503-1.632 9.616-4.08.388-.472.647-1.073.647-1.717a2.7 2.7 0 00-2.717-2.705c-.431 0-.862.129-1.25.3l-2.242 1.503a6.53 6.53 0 01-3.623 1.074c-3.794 0-6.77-3.135-6.77-7.043 0-3.864 3.019-7.042 6.77-7.042a6.53 6.53 0 013.623 1.074l2.156 1.417c.388.171.776.3 1.25.3a2.7 2.7 0 002.717-2.705c0-.644-.259-1.245-.647-1.718-2.113-2.49-5.175-3.993-8.84-3.993-7.072-.043-12.764 5.668-12.764 12.667zM8.624 52.731c-1.639 0-2.975 1.246-2.975 2.748 0 1.504 1.336 2.749 2.975 2.749s2.975-1.245 2.975-2.748c0-1.546-1.336-2.749-2.975-2.749zm-8.28 2.877c0-2.447.561-4.723 2.33-6.398 1.509-1.417 3.492-2.362 6.252-2.19 4.916.3 8.236 3.865 8.236 8.588 0 2.835-1.595 5.368-3.665 6.442l4.182 6.612c.173.344.302.773.302 1.203 0 1.417-1.337 2.62-2.76 2.62-.69 0-1.336-.258-1.81-.73l-6.684-9.061-.13-.043a.294.294 0 00-.302.3l-.086 6.785a2.7 2.7 0 01-2.716 2.705 2.7 2.7 0 01-2.717-2.705L.345 55.608zm206.422-6.741c.259 0 .431-.085.431-.343 0-.3-.172-.387-.431-.387h-.604v.73h.604zm-.604 1.546c0 .215-.086.387-.388.387-.302 0-.345-.13-.345-.387V47.88c0-.172.043-.344.388-.344h.906c.647 0 1.207.215 1.207.945 0 .558-.302.859-.819.902l.561.944.043.172c0 .172-.13.3-.388.3-.259 0-.345-.214-.432-.386l-.517-.944h-.259v.944h.043zm.475.988c1.25 0 2.285-1.03 2.285-2.276a2.268 2.268 0 00-2.285-2.276c-1.251 0-2.286 1.03-2.286 2.276.043 1.245 1.035 2.276 2.286 2.276zm0-5.282c1.638 0 3.018 1.331 3.018 3.006a3.021 3.021 0 01-3.018 3.006c-1.639 0-3.019-1.331-3.019-3.006 0-1.632 1.38-3.006 3.019-3.006z"/></g><defs><clipPath id="clip0_71_965"><path fill="#fff" d="M0 0h210v73H0z"/></clipPath></defs></svg>