<svg width="175" height="150" viewBox="0 0 175 150" fill="none" xmlns="http://www.w3.org/2000/svg">
<path d="M75.0291 150C33.6498 150 0 116.346 0 74.9705C0 33.5953 33.6498 0 75.0291 0C116.408 0 150 33.6542 150 75.0295C150 116.405 116.35 150 75.0291 150Z" fill="white"/>
<g clip-path="url(#clip0_163_6889)">
<rect x="6.24966" y="6.25" width="137.5" height="137.5" rx="68.75" fill="white"/>
<path d="M117.968 79.3298C117.968 55.753 98.4403 36.6094 74.3846 36.6094C50.3289 36.6094 30.7873 55.753 30.7873 79.3298C30.7873 102.907 50.3004 122.05 74.3846 122.05C98.4689 122.05 117.968 102.921 117.968 79.3298Z" fill="#D7D7D7"/>
<path d="M110.724 85.6918C110.724 66.03 94.439 50.0674 74.3831 50.0674C54.3271 50.0674 38.0281 66.03 38.0281 85.6918C38.0281 105.354 54.2843 121.331 74.3831 121.331C94.4819 121.331 110.724 105.368 110.724 85.6918Z" fill="#EAEAEA"/>
<path d="M102.768 94.4719C102.768 79.0995 90.0541 66.6489 74.3836 66.6489C58.7131 66.6489 45.9853 79.0995 45.9853 94.4719C45.9853 109.844 58.6988 122.295 74.3836 122.295C90.0684 122.295 102.768 109.844 102.768 94.4719Z" fill="#F6F6F6"/>
<path d="M112.272 113.832C112.272 114.402 111.833 115.452 109.976 116.825C108.198 118.139 105.501 119.454 102.004 120.619C95.0336 122.94 85.2887 124.532 74.4558 124.532C63.6228 124.532 53.8816 122.94 46.9145 120.619C43.4195 119.454 40.7247 118.14 38.9484 116.825C37.093 115.452 36.654 114.403 36.654 113.832C36.654 113.306 37.042 112.35 38.8754 111.115C40.6378 109.929 43.3244 108.781 46.8307 107.786C53.8151 105.804 63.5832 104.558 74.4558 104.558C85.3283 104.558 95.1001 105.804 102.088 107.786C105.596 108.781 108.285 109.929 110.049 111.116C111.884 112.351 112.272 113.307 112.272 113.832Z" stroke="#767676" stroke-width="4.13466"/>
<path d="M115.3 112.048C115.3 117.359 97.0155 121.663 74.4597 121.663C51.9039 121.663 33.6192 117.345 33.6192 112.048C33.6192 106.751 51.9181 102.49 74.4597 102.49C97.0012 102.49 115.3 106.808 115.3 112.048Z" fill="white" stroke="#767676" stroke-width="4.13466" stroke-miterlimit="10"/>
<path d="M66.5127 98.1971C66.5472 98.1637 66.5767 98.1353 66.6006 98.1124C67.3872 97.8321 68.23 98.0028 69.5285 98.5227C69.9543 98.6932 70.4302 98.9021 70.9604 99.1348C72.0489 99.6126 73.3662 100.191 74.9492 100.744C77.2416 101.544 78.2008 102.454 78.5852 103.301C78.9759 104.162 78.8405 105.091 78.6114 106.122C78.4279 106.949 77.613 107.831 76.4996 108.432C75.4022 109.024 74.1771 109.255 73.2806 108.973C71.1673 108.008 69.1522 106.838 67.2637 105.479L67.2431 105.464L67.2211 105.452C66.267 104.902 65.3803 104.381 64.681 103.851C63.9703 103.312 63.531 102.82 63.3741 102.357C63.3703 102.346 63.3555 102.274 63.4074 102.103C63.4568 101.94 63.5516 101.737 63.6918 101.5C63.9716 101.026 64.391 100.486 64.8383 99.9662C65.2827 99.4497 65.7416 98.9687 66.0905 98.6158C66.2646 98.4397 66.4106 98.2963 66.5127 98.1971Z" fill="#D7D7D7" stroke="#767676"/>
<path d="M69.4702 109.759C69.4857 109.714 69.499 109.675 69.5099 109.644C70.0929 109.029 70.9386 108.787 72.3419 108.649C72.826 108.602 73.3823 108.567 74.0048 108.528C75.1788 108.454 76.5885 108.366 78.195 108.15C80.5996 107.827 81.8672 108.201 82.5933 108.78C83.33 109.367 83.6288 110.252 83.8861 111.275C84.093 112.097 83.7639 113.256 83.0449 114.3C82.3359 115.33 81.3518 116.094 80.4316 116.254C78.0877 116.37 75.7381 116.256 73.4163 115.912L73.393 115.908L73.3694 115.907C72.269 115.849 71.2511 115.792 70.3939 115.642C69.524 115.49 68.9158 115.255 68.5641 114.911C68.555 114.903 68.5089 114.844 68.4771 114.668C68.4469 114.499 68.4389 114.274 68.456 113.998C68.4902 113.447 68.6184 112.772 68.781 112.104C68.9425 111.439 69.1331 110.8 69.2839 110.326C69.3591 110.089 69.4242 109.894 69.4702 109.759Z" fill="#D7D7D7" stroke="#767676"/>
<path d="M63.7669 105.652C63.8012 105.595 63.8294 105.549 63.8503 105.515C64.6202 104.902 65.5511 104.73 66.9918 104.725C67.5474 104.723 68.1583 104.745 68.8514 104.77C69.0832 104.779 69.3241 104.788 69.5752 104.796C70.5707 104.829 71.707 104.853 73.0107 104.817C75.545 104.746 76.7154 105.254 77.2829 105.881C77.8589 106.518 77.9464 107.41 77.9536 108.494C77.9594 109.368 77.3253 110.545 76.317 111.559C75.315 112.567 74.0848 113.271 73.0806 113.332C71.9684 113.4 70.8055 113.231 69.622 112.994C69.2204 112.913 68.8108 112.824 68.4004 112.734C67.629 112.565 66.8552 112.395 66.1288 112.286C65.0208 112.119 64.0013 111.962 63.1706 111.724C62.322 111.481 61.7881 111.185 61.5359 110.824C61.5366 110.825 61.537 110.826 61.5371 110.826C61.5377 110.826 61.5092 110.769 61.5206 110.595C61.5322 110.418 61.5812 110.184 61.6686 109.9C61.8428 109.335 62.1438 108.654 62.4771 107.985C62.8084 107.32 63.1628 106.685 63.4351 106.214C63.5711 105.979 63.6861 105.786 63.7669 105.652Z" fill="#D7D7D7" stroke="#767676"/>
<path d="M53.1376 107.048C53.1713 106.992 53.1991 106.946 53.22 106.912C54.0045 106.297 54.9412 106.126 56.3803 106.121C56.936 106.119 57.5464 106.141 58.239 106.166C58.4705 106.175 58.7111 106.184 58.9619 106.192C59.9566 106.225 61.092 106.249 62.3957 106.213C64.9302 106.142 66.0962 106.65 66.6599 107.276C67.2327 107.913 67.3171 108.805 67.3243 109.89C67.3301 110.763 66.6932 111.94 65.6826 112.955C64.6869 113.954 63.469 114.655 62.4768 114.726C60.1385 114.616 57.8176 114.265 55.5504 113.678L55.5236 113.671L55.4963 113.667C54.3926 113.508 53.3725 113.347 52.5432 113.106C51.695 112.86 51.1578 112.56 50.9046 112.203C50.9058 112.205 50.9064 112.206 50.9065 112.206C50.9072 112.205 50.8801 112.15 50.8913 111.982C50.9029 111.806 50.9517 111.573 51.0391 111.291C51.2133 110.728 51.5144 110.048 51.8477 109.38C52.179 108.716 52.5334 108.08 52.8057 107.61C52.9417 107.375 53.0567 107.182 53.1376 107.048Z" fill="#D7D7D7" stroke="#767676"/>
<path d="M54.0445 101.75C54.0661 101.707 54.0846 101.671 54.0997 101.641C54.7571 101.118 55.6011 101.014 56.9902 101.092C57.42 101.116 57.9006 101.157 58.433 101.203C59.6326 101.307 61.095 101.433 62.8302 101.433C65.2636 101.433 66.4693 101.972 67.1091 102.643C67.7583 103.325 67.9326 104.245 68.0471 105.305C68.1394 106.159 67.6506 107.27 66.7938 108.203C65.9466 109.126 64.8663 109.736 63.9378 109.745C61.6272 109.53 59.3422 109.094 57.1139 108.441L57.0914 108.435L57.0683 108.43C56.9864 108.415 56.9048 108.399 56.8235 108.383C55.8578 108.197 54.9421 108.021 54.1645 107.777C53.3079 107.508 52.7283 107.187 52.4351 106.785C52.4208 106.765 52.3832 106.689 52.3768 106.504C52.3707 106.327 52.3949 106.098 52.4506 105.823C52.5618 105.275 52.7829 104.621 53.0369 103.979C53.2892 103.341 53.5665 102.734 53.7815 102.285C53.8889 102.061 53.9802 101.877 54.0445 101.75Z" fill="#D7D7D7" stroke="#767676"/>
<path d="M73.3277 98.6645C73.3433 98.6185 73.3568 98.5794 73.3677 98.5479C73.95 97.9276 74.7817 97.6885 76.17 97.5545C76.6382 97.5093 77.1737 97.4762 77.7725 97.4393C78.9471 97.3669 80.3653 97.2795 81.9967 97.0556C84.4015 96.7255 85.6686 97.0963 86.3941 97.6731C87.1302 98.2583 87.429 99.1428 87.6863 100.165C87.8933 100.988 87.5641 102.151 86.845 103.197C86.1351 104.229 85.1512 104.992 84.2331 105.145C81.913 105.264 79.5869 105.149 77.2893 104.803L77.2636 104.799L77.2376 104.798C76.1315 104.747 75.1101 104.694 74.2519 104.545C73.381 104.395 72.773 104.16 72.4215 103.817C72.4124 103.808 72.3663 103.75 72.3346 103.573C72.3043 103.404 72.2963 103.179 72.3134 102.903C72.3476 102.352 72.4758 101.678 72.6384 101.009C72.7999 100.345 72.9905 99.7057 73.1413 99.2312C73.2166 98.9944 73.2816 98.7997 73.3277 98.6645Z" fill="#D7D7D7" stroke="#767676"/>
<path d="M89.5416 114.385C89.5201 114.428 89.5017 114.465 89.4867 114.494C88.8304 115.027 87.9686 115.155 86.5694 115.103C86.0892 115.085 85.5402 115.046 84.9257 115.001C83.757 114.917 82.3511 114.815 80.7299 114.815C78.3093 114.815 77.1067 114.286 76.4656 113.619C75.8153 112.943 75.6345 112.022 75.5129 110.941C75.414 110.062 75.899 108.94 76.7486 108.004C77.5901 107.077 78.6667 106.468 79.5948 106.459C81.9095 106.665 84.1997 107.092 86.4342 107.735L86.4618 107.743L86.4902 107.748C87.5733 107.928 88.5752 108.107 89.4029 108.367C90.2418 108.63 90.812 108.95 91.1152 109.354C91.1288 109.372 91.1671 109.445 91.1752 109.629C91.1829 109.805 91.1608 110.033 91.1073 110.307C91.0005 110.854 90.7841 111.508 90.5346 112.151C90.2867 112.789 90.0133 113.398 89.8012 113.848C89.6953 114.073 89.6051 114.257 89.5416 114.385Z" fill="#D7D7D7" stroke="#767676"/>
<path d="M88.2814 110.583C88.2599 110.626 88.2415 110.663 88.2265 110.693C87.5702 111.226 86.7084 111.353 85.3092 111.302C84.829 111.284 84.28 111.244 83.6655 111.2C82.4968 111.115 81.0909 111.013 79.4697 111.013C77.05 111.013 75.8473 110.481 75.2058 109.812C74.5549 109.134 74.3742 108.213 74.2526 107.139C74.1541 106.269 74.638 105.151 75.4881 104.216C76.3301 103.29 77.4074 102.68 78.3358 102.672C80.6505 102.865 82.9407 103.288 85.1734 103.933L85.2 103.941L85.2272 103.946C86.2764 104.127 87.2791 104.305 88.1174 104.566C88.9695 104.83 89.5538 105.151 89.855 105.552C89.8686 105.571 89.9069 105.644 89.915 105.827C89.9228 106.003 89.9006 106.231 89.8471 106.505C89.7403 107.052 89.524 107.707 89.2744 108.349C89.0265 108.988 88.7531 109.596 88.541 110.047C88.4351 110.271 88.3449 110.456 88.2814 110.583Z" fill="#D7D7D7" stroke="#767676"/>
<path d="M94.4996 109.186C94.4654 109.221 94.4366 109.25 94.4141 109.273C93.6676 109.623 92.8692 109.587 91.6694 109.322C91.2623 109.232 90.802 109.113 90.2871 108.98C89.2893 108.723 88.0867 108.413 86.6704 108.157C84.5638 107.776 83.736 107.154 83.4141 106.571C83.083 105.971 83.1799 105.243 83.3837 104.341C83.459 104.007 83.672 103.626 84.0153 103.236C84.355 102.85 84.8009 102.479 85.2997 102.165C86.3093 101.53 87.4318 101.188 88.2366 101.309C90.1688 101.813 92.0427 102.522 93.8268 103.424L93.8487 103.435L93.8715 103.444C94.7497 103.785 95.5498 104.101 96.1801 104.446C96.8169 104.794 97.1775 105.119 97.3128 105.43C97.3129 105.441 97.3125 105.484 97.2851 105.575C97.2444 105.709 97.1629 105.886 97.0379 106.1C96.7892 106.526 96.413 107.025 96.01 107.512C95.6099 107.995 95.196 108.451 94.881 108.786C94.7238 108.954 94.5919 109.091 94.4996 109.186Z" fill="#D7D7D7" stroke="#767676"/>
<path d="M96.3332 113.374C96.299 113.409 96.2703 113.439 96.2477 113.462C95.507 113.806 94.7109 113.772 93.5137 113.51C93.0971 113.419 92.6217 113.297 92.0878 113.161C91.099 112.907 89.9092 112.602 88.5193 112.347C86.4137 111.959 85.5806 111.33 85.256 110.742C84.9235 110.139 85.0199 109.41 85.2299 108.52C85.3918 107.833 86.1276 106.997 87.1522 106.353C88.1602 105.719 89.2791 105.378 90.0836 105.498C92.0144 106.004 93.8885 106.709 95.6766 107.6L95.6972 107.61L95.7188 107.619C96.597 107.96 97.3971 108.276 98.0274 108.621C98.6641 108.969 99.0245 109.294 99.16 109.604C99.1601 109.615 99.1595 109.659 99.1319 109.749C99.0909 109.884 99.0089 110.061 98.8832 110.276C98.6331 110.703 98.2551 111.205 97.8503 111.693C97.4483 112.179 97.0326 112.636 96.7163 112.973C96.5584 113.141 96.4259 113.279 96.3332 113.374Z" fill="#D7D7D7" stroke="#767676"/>
<path d="M57.4987 28.4509L57.3333 29.5283C50.172 28.429 46.4475 27.8729 40.5127 29.7577C36.3893 31.7417 34.5661 33.0872 32.8679 35.8413C32.5995 36.2766 32.394 36.6132 32.2524 36.9279C32.1149 37.2336 32.0771 37.4369 32.0851 37.5882C32.0971 37.8137 32.2448 38.3527 33.6723 39.2329L33.7675 39.2916L33.8487 39.3684C34.3774 39.8677 35.3796 40.8495 36.2448 41.7367C36.6763 42.1792 37.0844 42.609 37.3852 42.9481C37.5331 43.1149 37.6711 43.2776 37.7757 43.4174C37.8255 43.4839 37.8888 43.5731 37.9431 43.671C37.9694 43.7185 38.0111 43.7991 38.0447 43.9008C38.0678 43.9708 38.1462 44.2162 38.0745 44.5213C38.004 44.8214 37.8381 45.0274 37.7325 45.1388C37.6182 45.2594 37.4932 45.3536 37.3868 45.4248C37.1738 45.5673 36.9156 45.696 36.6511 45.8122C36.1141 46.0481 35.39 46.3018 34.5552 46.5641C32.8766 47.0914 30.6258 47.6916 28.2399 48.2925C25.707 48.9304 23.055 49.5617 20.7179 50.1181C18.5874 50.6253 16.7185 51.0701 15.4399 51.401C11.7582 52.3542 5.60902 52.6078 -3.14121 52.2413C-12.4511 51.8519 -13.8776 51.7125 -23.4782 50.2593C-27.5699 49.6398 -33.965 48.9371 -37.666 48.7003C-39.5378 48.5805 -41.3115 48.455 -42.6621 48.3492C-43.3369 48.2963 -43.9095 48.2481 -44.3374 48.2077C-44.7167 48.172 -45.0852 48.1342 -45.2628 48.0924C-45.5508 48.0248 -45.742 47.8628 -45.8099 47.8032C-45.9024 47.7221 -45.9793 47.6351 -46.0376 47.5637C-46.1559 47.4189 -46.2756 47.2422 -46.3906 47.0584C-46.6245 46.6848 -46.9038 46.1779 -47.2079 45.5856C-47.819 44.3952 -48.5666 42.7883 -49.307 41.0481C-53.6646 30.8068 -57.497 26.29 -62.5532 24.5598L-62.5532 24.5598C-64.2274 23.9868 -65.0843 24.0366 -65.5744 24.2992C-66.0535 24.556 -66.546 25.2141 -66.9387 26.8853C-67.0694 27.4413 -67.1048 28.346 -66.9953 29.6174C-66.8877 30.8675 -66.6475 32.3947 -66.2789 34.1548C-65.542 37.6736 -64.3054 42.0605 -62.6489 46.9107L-63.6804 47.2631L-62.6489 46.9108L-60.6033 52.8999L-60.4412 53.3746L-60.6963 53.8066L-65.3819 61.74C-74.6972 77.5125 -79.0521 85.4523 -81.9836 91.98C-84.0256 96.5277 -85.2197 99.1028 -86.4369 100.887C-87.7035 102.744 -88.9894 103.739 -91.0614 105.196C-92.6394 106.306 -93.4598 106.958 -94.0132 107.611C-94.5395 108.232 -94.8665 108.904 -95.3221 110.17L-95.3222 110.17C-95.7323 111.31 -96.1877 112.749 -96.6755 114.291C-97.0169 115.37 -97.3743 116.5 -97.7431 117.612C-98.1832 118.939 -98.6354 120.225 -99.081 121.31C-99.5136 122.362 -99.9831 123.335 -100.484 123.953M57.4987 28.4509L-100.484 123.953M57.4987 28.4509L57.3333 29.5283C61.0925 30.1051 64.8517 30.9959 68.0501 31.97C71.2691 32.9504 73.8482 33.9937 75.2868 34.8521C76.8499 35.7849 78.4673 37.365 79.8534 39.1411M57.4987 28.4509L79.8534 39.1411M-100.484 123.953C-101.039 124.639 -101.75 126.13 -101.995 127.174C-102.166 127.899 -102.166 128.392 -102.064 128.757C-101.969 129.096 -101.758 129.433 -101.279 129.797C-100.231 130.592 -98.1842 131.317 -94.4708 132.192C-92.4214 132.675 -90.879 132.963 -89.7471 133.042C-88.556 133.125 -88.0952 132.95 -87.9408 132.826C-87.8834 132.78 -87.6928 132.607 -87.7936 131.771C-87.8932 130.944 -88.2479 129.774 -88.8724 128.154M-100.484 123.953L-88.8724 128.154M-88.8724 128.154C-88.8725 128.154 -88.8725 128.154 -88.8725 128.154L-90.0012 125.226L-90.1676 124.795L-89.9728 124.375L-88.0428 120.218L-88.0428 120.218L-88.0037 120.133C-86.5706 117.046 -85.8718 115.54 -84.2155 113.877C-83.0677 112.725 -81.4262 111.467 -78.7087 109.385C-77.689 108.604 -76.5177 107.706 -75.1641 106.655C-70.306 102.88 -64.7531 98.729 -62.8257 97.4356C-62.8257 97.4356 -62.8256 97.4355 -62.8256 97.4355L-59.3872 95.1272L-58.9916 94.8616L-58.5279 94.9716L-54.9723 95.8154C-53.7132 96.1141 -52.6841 96.3818 -51.8599 96.646C-51.0463 96.9068 -50.3661 97.1843 -49.8428 97.5259C-49.2986 97.8812 -48.8655 98.3452 -48.6644 98.9795C-48.4734 99.5816 -48.5425 100.184 -48.6668 100.713C-48.7585 101.104 -49.0192 101.589 -49.2801 102.029C-49.5683 102.516 -49.9519 103.102 -50.399 103.744C-51.2946 105.032 -52.474 106.589 -53.7246 108.111C-55.9065 110.768 -56.9559 112.08 -57.5408 113.124C-58.077 114.081 -58.2182 114.801 -58.4378 116.402C-58.5509 117.228 -58.5575 117.68 -58.4996 118.074C-58.4393 118.485 -58.3011 118.898 -58.0122 119.666C-57.9757 119.763 -57.9375 119.864 -57.8975 119.97C-57.3062 121.534 -56.3394 124.092 -54.9814 129.411L-54.9814 129.411C-54.4241 131.595 -53.935 133.196 -53.4736 134.35C-53.0035 135.526 -52.6052 136.122 -52.2902 136.41L-52.29 136.41C-51.4356 137.189 -50.0602 138.798 -49.1927 140.017C-48.4496 141.06 -48.1769 141.384 -47.5246 141.693C-46.9122 141.984 -46.0008 142.236 -44.2965 142.637C-44.2389 142.628 -44.1974 142.625 -44.1824 142.624L-44.179 142.624C-44.1432 142.621 -44.1096 142.62 -44.0802 142.62C-44.0591 142.62 -44.0402 142.62 -44.0243 142.62C-43.8835 142.623 -43.696 142.642 -43.5214 142.662C-43.2325 142.695 -42.888 142.74 -42.5321 142.786C-41.9081 142.868 -41.2491 142.954 -40.7937 142.986C-40.2129 143.026 -39.7935 143.045 -39.479 143.037C-39.2255 143.03 -39.0916 143.008 -39.0271 142.991C-39.0061 142.941 -38.9719 142.843 -38.9286 142.659C-38.89 142.495 -38.8846 142.214 -39.15 141.658C-39.4226 141.088 -39.9297 140.335 -40.7735 139.286C-41.3966 138.512 -42.0751 137.785 -42.6577 137.243C-42.9498 136.971 -43.2042 136.759 -43.4049 136.613C-43.5766 136.489 -43.6534 136.455 -43.6525 136.453C-46.273 135.818 -47.4727 133.366 -47.8393 131.015C-48.213 128.62 -47.8204 125.884 -46.8479 123.965M-88.8724 128.154L-45.8755 124.458M-46.8479 123.965L-45.8755 124.458M-46.8479 123.965C-46.8479 123.965 -46.8479 123.965 -46.8479 123.965L-45.8755 124.458M-46.8479 123.965C-46.6731 123.62 -46.3383 123.259 -46.0331 122.958C-45.6925 122.622 -45.2579 122.236 -44.7651 121.827C-43.7777 121.007 -42.5134 120.057 -41.2045 119.168M-45.8755 124.458C-45.5358 123.787 -43.1582 121.813 -40.592 120.07M-41.2045 119.168L-40.592 120.07M-41.2045 119.168C-41.2045 119.168 -41.2044 119.168 -41.2044 119.168L-40.592 120.07M-41.2045 119.168L-40.592 120.07M50.2985 79.9996C49.2974 80.4308 49.2974 80.4309 49.2974 80.4309L49.2976 80.4313L49.2981 80.4325L49.3 80.4369L50.2985 79.9996ZM50.2985 79.9996C50.2985 79.9996 50.464 80.3838 50.7347 80.9957L50.2985 79.9996ZM79.8534 39.1411C81.2373 40.9143 82.3247 42.7978 82.8726 44.2712L79.8534 39.1411ZM-42.731 143.86C-42.7293 143.86 -42.7275 143.86 -42.7257 143.86L-42.5341 143.044C-42.9503 142.944 -43.2456 142.869 -43.444 142.814C-43.5438 142.787 -43.6104 142.767 -43.6515 142.754C-43.714 142.733 -43.6749 142.742 -43.6062 142.778C-43.5937 142.785 -43.5731 142.796 -43.5475 142.812C-43.2371 142.883 -42.9044 142.96 -42.5475 143.041L-42.7342 143.859C-42.7331 143.86 -42.7321 143.86 -42.731 143.86ZM73.9316 91.2046C73.3445 90.2862 73.3447 90.286 73.3449 90.2859L73.3445 90.2862L73.9316 91.2046ZM27.3691 151.885L26.8909 152.865C26.891 152.865 26.8911 152.865 26.8912 152.865L27.3691 151.885ZM30.1657 159.432C30.1657 159.432 30.1654 159.432 30.1648 159.432C30.1576 159.439 30.1501 159.445 30.1424 159.452L30.851 160.28L30.1426 159.452C30.1575 159.439 30.1661 159.433 30.1657 159.432ZM0.610242 119.956C0.610225 119.956 0.610216 119.956 0.610199 119.956L-0.345715 120.48L0.610242 119.956ZM-15.1848 114.984L-15.0212 113.906C-15.0212 113.906 -15.0212 113.906 -15.0212 113.906L-15.1848 114.984ZM10.2152 156.36L10.0513 155.797L9.49157 155.624L9.16867 156.665L10.2152 156.36ZM24.9987 137.892C24.9773 137.92 24.9561 137.947 24.935 137.975C24.9204 138.005 24.9056 138.035 24.8905 138.065L25.8658 138.552L24.9987 137.892ZM18.5366 124.875L19.6259 124.834L18.5482 124.671C18.5428 124.706 18.5377 124.741 18.533 124.776C18.5342 124.809 18.5354 124.842 18.5366 124.875ZM39.6789 83.467C39.6569 83.4739 39.6349 83.481 39.613 83.4884L39.5638 83.5099L40.001 84.5085L39.6789 83.467ZM80.0153 85.338C79.9964 85.3807 79.9772 85.4228 79.9578 85.4644L80.9462 85.9243L80.1085 85.2267C80.0779 85.2635 80.0468 85.3006 80.0153 85.338Z" fill="#C1F1FF" stroke="#05A4D1" stroke-width="2.18016"/>
</g>
<path d="M75.0277 150C33.6904 150 0 116.361 0 75.0281C0 33.6391 33.635 0 75.0277 0C116.365 0 150 33.6391 150 74.9719C149.945 116.361 116.365 150 75.0277 150ZM75.0277 7.076C37.5139 7.076 6.9819 37.5702 6.9819 75.0281C6.9819 112.486 37.5139 142.98 75.0277 142.98C112.542 142.98 143.018 112.486 143.018 75.0281C143.018 37.514 112.486 7.076 75.0277 7.076Z" fill="url(#paint0_linear_163_6889)"/>
<path d="M174.658 119.676C174.658 127.75 168.209 134.295 160.253 134.295C152.298 134.295 145.848 127.75 145.848 119.676C145.848 111.602 152.298 105.917 160.253 105.917C168.209 105.917 174.658 111.602 174.658 119.676Z" fill="white"/>
<path d="M160 135C151.711 135 145 128.279 145 120C145 111.721 151.711 105 160 105C168.289 105 175 111.721 175 120C175 128.234 168.246 135 160 135ZM160 106.38C152.5 106.38 146.404 112.478 146.404 120C146.404 127.522 152.5 133.62 160 133.62C167.5 133.62 173.596 127.522 173.596 120C173.596 112.478 167.5 106.38 160 106.38Z" fill="#878787"/>
<path fill-rule="evenodd" clip-rule="evenodd" d="M165.685 112.5C165.76 112.576 165.798 112.652 165.836 112.728C166.975 114.663 168.151 116.598 169.289 118.495C169.821 119.406 170.238 120.355 170.428 121.379C170.921 124.149 168.834 126.729 165.988 126.805C163.673 126.881 161.814 125.553 161.207 123.466C160.866 122.176 161.017 120.886 161.624 119.71C162.687 117.698 163.825 115.725 164.926 113.752C165.191 113.335 165.457 112.917 165.685 112.5Z" fill="#D7D7D7"/>
<path d="M154.946 120.392H152.67C151.759 120.392 151 119.671 151 118.723V116.446C151 115.535 151.721 114.776 152.67 114.776H154.946C155.857 114.776 156.616 115.497 156.616 116.446V118.723C156.616 119.633 155.857 120.392 154.946 120.392Z" fill="#D7D7D7"/>
<defs>
<linearGradient id="paint0_linear_163_6889" x1="0.00426672" y1="75.0026" x2="149.967" y2="75.0026" gradientUnits="userSpaceOnUse">
<stop stop-color="#F1F1F1"/>
<stop offset="0.327" stop-color="#808285"/>
<stop offset="0.5757" stop-color="#EBEBEB"/>
<stop offset="0.8946" stop-color="#808285"/>
</linearGradient>
<clipPath id="clip0_163_6889">
<rect x="6.24966" y="6.25" width="137.5" height="137.5" rx="68.75" fill="white"/>
</clipPath>
</defs>
</svg>
