<svg width="175" height="150" viewBox="0 0 175 150" fill="none" xmlns="http://www.w3.org/2000/svg">
<path d="M75.0291 150C33.6498 150 0 116.346 0 74.9705C0 33.5953 33.6498 0 75.0291 0C116.408 0 150 33.6542 150 75.0295C150 116.405 116.35 150 75.0291 150Z" fill="white"/>
<rect x="6.24969" y="6.25" width="137.5" height="137.5" rx="68.75" fill="white"/>
<path d="M115.431 45.4035C114.189 44.8697 109.405 42.7809 108.324 42.1079C107.244 41.4348 105.404 40.4137 105.473 39.5782C105.55 38.8359 105.407 38.0873 105.063 37.4266C104.72 36.7658 104.19 36.2225 103.541 35.8648C101.609 34.6115 97.7684 32.4996 97.5155 31.5712C97.2625 30.6429 98.1134 28.7862 98.2744 27.6026C98.8339 26.083 99.3099 24.5334 99.7003 22.9609C99.7003 21.6844 99.7003 19.3403 98.1134 20.1758C96.5266 21.0114 96.1816 23.2162 94.9397 24.98C93.285 27.1123 91.7494 29.336 90.3401 31.6409C88.7932 33.6297 87.0603 35.4639 85.1656 37.1181C82.6508 40.2461 80.5696 43.705 78.9791 47.3994C76.8646 52.786 73.9403 57.8116 70.3089 62.2993C67.3882 65.1772 59.7759 74.0196 58.534 75.7835C55.289 80.3601 52.3022 85.1176 49.5878 90.0335C48.5493 93.2727 47.6818 96.5651 46.9891 99.8971C46.8281 101.406 46.0691 108.763 46.0691 109.668C45.3021 110.707 44.2628 111.51 43.0683 111.985C41.8737 112.461 40.5714 112.591 39.3078 112.36C36.893 111.339 29.2807 108.066 28.1998 106.535C27.1189 105.003 22.2663 102.914 23.0942 104.075C24.7369 106.548 26.5833 108.877 28.6137 111.037C30.2926 112.383 38.1349 115.516 41.0556 114.751C43.9763 113.985 47.403 112.801 49.3348 113.567C51.2667 114.333 51.1747 117.118 55.2683 117.628C59.3619 118.139 68.3771 120.065 70.3089 119.555C72.2408 119.044 72.4017 116.863 71.7348 116.607C71.0679 116.352 77.0013 114.17 78.0822 114.17C79.1631 114.17 80.382 112.662 80.382 112.058C80.382 111.455 79.4621 110.55 78.4502 110.55C77.3706 110.572 76.2958 110.399 75.2765 110.039C75.0819 109.879 74.9222 109.68 74.8077 109.454C74.6932 109.229 74.6263 108.982 74.6111 108.729C74.596 108.476 74.633 108.222 74.7198 107.985C74.8066 107.747 74.9414 107.53 75.1155 107.347C76.633 105.736 77.814 103.834 78.5882 101.754C78.8412 100.152 77.7603 99.6418 78.9102 98.6438C80.06 97.6459 81.4169 95.8588 81.7619 96.7872C82.1069 97.7155 84.3607 104.376 85.0966 106.233C85.9552 109.181 86.5404 112.204 86.8444 115.261C86.8444 116.189 86.4995 119.485 87.4194 119.555C89.3893 119.808 91.383 119.808 93.3528 119.555C94.0379 119.097 94.832 118.832 95.6526 118.789C96.0666 118.789 98.9183 119.717 99.2403 118.789C99.5623 117.86 99.9072 115.841 99.0793 115.586C98.2514 115.331 97.4925 113.474 97.4925 113.265C97.4925 113.056 95.9056 102.984 95.8136 101.661C95.7216 100.338 95.3997 94.0718 95.3997 93.2363C95.3997 92.4007 95.7446 85.0669 95.8136 83.7208C95.8816 81.42 96.19 79.1329 96.7335 76.8975C97.2488 75.0556 97.5801 73.1663 97.7225 71.2578C97.9754 69.4939 96.6415 67.9622 96.2276 66.1055C95.8136 64.2488 94.4797 61.8119 94.8017 60.2105C95.1237 58.6091 96.2966 53.248 97.3085 52.7142C99.0094 52.0344 100.859 51.8261 102.667 52.1108C104.589 52.5086 106.546 52.7108 108.508 52.7142C109.764 52.37 110.97 51.8629 112.096 51.2056C112.924 50.6022 113.269 49.7667 113.936 49.2561C114.603 48.7455 117.11 46.0533 115.431 45.4035Z" fill="#F6F6F6" stroke="#767676" stroke-width="1.17239" stroke-miterlimit="10"/>
<path d="M79.7605 73.9043C77.2952 72.0532 74.2474 71.1692 71.1844 71.4168C68.1214 71.6645 65.2519 73.0268 63.11 75.2504C62.7322 75.6458 62.3789 76.0643 62.0521 76.5036C60.5587 78.5238 59.6925 80.9456 59.5632 83.4626C59.4339 85.9797 60.0472 88.4789 61.3255 90.6441C62.6039 92.8093 64.4899 94.5433 66.7449 95.6267C68.9999 96.7101 71.5227 97.0943 73.9941 96.7305C76.4655 96.3668 78.7745 95.2716 80.629 93.5834C82.4835 91.8952 83.8002 89.6899 84.4126 87.2464C85.0249 84.8029 84.9054 82.231 84.0692 79.8561C83.2329 77.4812 81.7174 75.4099 79.7145 73.9043H79.7605ZM61.3162 85.671C61.117 84.2357 61.2015 82.7749 61.5646 81.3728C61.9278 79.9706 62.5624 78.6549 63.432 77.5016C63.7163 77.1267 64.0235 76.7702 64.3519 76.434C65.7852 74.924 67.6129 73.8545 69.6235 73.3493C71.6341 72.8441 73.7453 72.9239 75.7129 73.5793L74.8389 75.1343C74.8075 75.1526 74.7718 75.1623 74.7355 75.1623C74.6991 75.1623 74.6634 75.1526 74.632 75.1343C73.5964 74.9169 72.5348 74.8543 71.4813 74.9486C70.6725 75.1943 69.9464 75.6599 69.3825 76.2944C68.8186 76.929 68.4387 77.708 68.2845 78.546C68.1989 79.1261 68.2366 79.7179 68.3953 80.2822C68.5539 80.8464 68.8297 81.3701 69.2045 81.8184C69.4468 82.0933 69.7505 82.3061 70.0903 82.4392C70.4302 82.5724 70.7966 82.6221 71.1593 82.5843C71.6882 82.5843 72.7001 82.3754 72.9991 83.4198C73.6963 84.0356 74.4693 84.5582 75.2989 84.9747L76.1498 85.2764C76.1922 85.2915 76.2285 85.32 76.2534 85.3576C76.2783 85.3953 76.2904 85.4401 76.2878 85.4853C76.2459 85.9025 76.1372 86.3101 75.9658 86.6922C75.9296 86.7204 75.8851 86.7357 75.8394 86.7357C75.7936 86.7357 75.7491 86.7204 75.7129 86.6922C74.9999 86.4137 73.4131 85.5085 71.9872 84.7891L71.4813 84.5106C70.4274 83.8791 69.3281 83.3283 68.1926 82.8628C67.5569 82.6282 66.8583 82.6355 66.2275 82.8832C65.5968 83.131 65.0771 83.6023 64.7659 84.2088C64.4209 85.0676 64.4899 86.785 68.5375 88.6417L70.1934 89.3843C71.2236 89.7213 72.1828 90.2486 73.0221 90.9393C73.1278 91.1846 73.1824 91.4493 73.1824 91.7168C73.1824 91.9843 73.1278 92.249 73.0221 92.4943C72.9832 92.5814 72.9173 92.6534 72.8344 92.6994C72.7514 92.7454 72.6559 92.7631 72.5622 92.7496C71.3346 92.4309 70.1945 91.8358 69.2275 91.0089C68.7353 90.6437 68.2206 90.3104 67.6866 90.011C67.243 89.7475 66.7481 89.5841 66.236 89.532C65.7239 89.48 65.2066 89.5404 64.7199 89.7093C64.2211 89.9246 63.8138 90.311 63.57 90.8001C62.4132 89.2866 61.668 87.4946 61.4082 85.6014L61.3162 85.671ZM81.0254 90.6376C80.7435 91.0217 80.4361 91.3861 80.1055 91.7284C78.2504 93.654 75.7649 94.8334 73.112 95.0469C70.4591 95.2604 67.8198 94.4934 65.6858 92.8888C65.4788 92.7264 65.2718 92.5407 65.0648 92.3782C65.0427 92.201 65.0427 92.0217 65.0648 91.8444C65.0801 91.7355 65.1217 91.6319 65.1858 91.5429C65.25 91.4539 65.3348 91.3821 65.4328 91.3339C65.6931 91.2659 65.9646 91.2534 66.2299 91.2974C66.4953 91.3414 66.7486 91.4407 66.9737 91.5892C67.2726 91.7516 67.6866 92.0301 68.1236 92.3318L68.2845 92.4479C69.5106 93.5281 71.0055 94.2502 72.6082 94.5366C73.015 94.5447 73.4167 94.4437 73.7723 94.2439C74.1278 94.0441 74.4245 93.7527 74.632 93.3994C74.9038 92.881 75.046 92.3033 75.046 91.7168C75.046 91.1303 74.9038 90.5526 74.632 90.0342C73.6525 88.9414 72.3962 88.139 70.9983 87.7133L69.3884 86.9939C67.5486 86.1352 66.6977 85.3693 66.5597 84.9515C66.537 84.9172 66.5248 84.8768 66.5248 84.8355C66.5248 84.7942 66.537 84.7538 66.5597 84.7194C66.7439 84.6061 66.9496 84.5331 67.1636 84.5051C67.3775 84.4772 67.5949 84.4948 67.8016 84.557C68.0546 84.557 68.8825 85.0908 70.1014 85.7406L70.6993 86.0655C72.2709 86.98 73.9175 87.7565 75.6209 88.3864C75.8478 88.4495 76.086 88.4592 76.3172 88.415C76.5484 88.3707 76.7665 88.2736 76.9548 88.1311C77.584 87.5115 77.982 86.6917 78.0816 85.8102C78.0659 85.7652 78.0659 85.716 78.0816 85.671C78.1071 85.6601 78.1345 85.6545 78.1621 85.6545C78.1898 85.6545 78.2172 85.6601 78.2426 85.671H78.3806C78.8207 85.8213 79.2975 85.8213 79.7375 85.671C80.2643 85.5372 80.7427 85.2556 81.1174 84.8587C82.1983 83.6286 81.8073 82.9092 80.5194 80.4491L80.3124 80.3098C79.641 79.0087 78.7274 77.8504 77.6217 76.8982C77.4806 76.8513 77.3506 76.7756 77.2398 76.6757C77.129 76.5759 77.0398 76.4541 76.9777 76.318C76.9009 76.0211 76.8963 75.7099 76.9644 75.4108C77.0325 75.1118 77.1712 74.8338 77.3687 74.6005V74.3452C78.7496 75.0905 79.9548 76.1279 80.9018 77.3864C81.8489 78.645 82.5155 80.0951 82.8561 81.6375C83.1967 83.18 83.2033 84.7785 82.8755 86.3238C82.5476 87.8691 81.893 89.3247 80.9564 90.5912" fill="#05A4D1"/>
<path d="M50.4149 111.688C50.256 111.724 50.0909 111.724 49.932 111.688C49.8004 111.625 49.6823 111.537 49.5845 111.429C49.4867 111.321 49.411 111.194 49.3619 111.056C49.3127 110.918 49.2911 110.771 49.2981 110.625C49.3052 110.478 49.3408 110.335 49.403 110.202C49.757 109.449 50.1969 108.74 50.7139 108.09C50.8969 107.859 51.1632 107.711 51.4543 107.679C51.7455 107.646 52.0375 107.731 52.2663 107.916C52.495 108.101 52.6417 108.37 52.674 108.663C52.7063 108.957 52.6217 109.252 52.4387 109.483C52.0291 109.996 51.6817 110.557 51.4038 111.154C51.3168 111.345 51.1777 111.508 51.0026 111.623C50.8276 111.738 50.6238 111.801 50.4149 111.804V111.688ZM54.3706 107.487C54.1345 107.484 53.9054 107.405 53.7171 107.262C53.5287 107.118 53.391 106.917 53.3241 106.689C53.2572 106.46 53.2646 106.216 53.3454 105.992C53.4261 105.768 53.5758 105.576 53.7726 105.444L54.8075 104.795L55.6355 104.261C55.7578 104.18 55.8946 104.124 56.0383 104.097C56.1819 104.07 56.3295 104.071 56.4726 104.101C56.6156 104.131 56.7514 104.19 56.8722 104.273C56.9929 104.356 57.0963 104.462 57.1763 104.586C57.2563 104.709 57.3115 104.847 57.3386 104.992C57.3658 105.137 57.3643 105.286 57.3344 105.431C57.3046 105.575 57.2468 105.712 57.1644 105.834C57.082 105.956 56.9767 106.06 56.8543 106.141L55.9804 106.698L55.0145 107.324C54.8371 107.443 54.6295 107.508 54.4166 107.51L54.3706 107.487ZM59.2461 104.075C59.0124 104.075 58.7847 104 58.5958 103.862C58.4069 103.723 58.2665 103.527 58.1949 103.302C58.1233 103.078 58.1242 102.836 58.1973 102.612C58.2705 102.388 58.4123 102.194 58.6022 102.056C59.1727 101.649 59.718 101.207 60.235 100.733C60.3422 100.634 60.4677 100.557 60.6044 100.507C60.741 100.457 60.886 100.435 61.0313 100.441C61.1765 100.448 61.319 100.483 61.4507 100.545C61.5824 100.607 61.7007 100.695 61.7989 100.803C61.897 100.911 61.9731 101.038 62.0228 101.175C62.0724 101.313 62.0947 101.46 62.0883 101.606C62.0819 101.753 62.0469 101.897 61.9854 102.03C61.9239 102.162 61.8371 102.282 61.7299 102.381C61.1466 102.906 60.5322 103.394 59.8901 103.843C59.7052 103.987 59.4797 104.069 59.2461 104.075ZM63.1098 99.6191C62.9731 99.646 62.8325 99.646 62.6958 99.6191C62.4251 99.5105 62.2079 99.2983 62.0916 99.0287C61.9753 98.7592 61.9693 98.4542 62.0749 98.1802C62.2152 97.8194 62.323 97.4465 62.3968 97.0662C62.4548 96.7584 62.6315 96.4865 62.8881 96.3102C63.1447 96.1339 63.4602 96.0678 63.7652 96.1262C64.0702 96.1847 64.3396 96.363 64.5143 96.622C64.689 96.881 64.7546 97.1994 64.6966 97.5071C64.596 98.0146 64.4497 98.5118 64.2597 98.9925C64.1801 99.2044 64.0385 99.3868 63.8536 99.5153C63.6687 99.6439 63.4493 99.7125 63.2248 99.7119" fill="#05A4D1"/>
<path d="M78.2662 70.4907C78.1073 70.5275 77.9422 70.5275 77.7833 70.4907C77.6517 70.4285 77.5336 70.3406 77.4358 70.2322C77.338 70.1237 77.2623 69.9969 77.2132 69.8589C77.164 69.7209 77.1424 69.5745 77.1494 69.428C77.1565 69.2815 77.1921 69.1379 77.2543 69.0054C77.6083 68.2523 78.0482 67.5435 78.5652 66.8934C78.7482 66.6626 79.0145 66.5146 79.3057 66.4819C79.5968 66.4493 79.8888 66.5347 80.1176 66.7193C80.3463 66.904 80.493 67.1728 80.5253 67.4666C80.5577 67.7604 80.473 68.0551 80.2901 68.2859C79.8805 68.7994 79.533 69.3604 79.2552 69.9569C79.1681 70.1486 79.029 70.3114 78.854 70.4264C78.6789 70.5414 78.4751 70.604 78.2662 70.6068V70.4907ZM82.2219 66.29C81.9858 66.2874 81.7567 66.2084 81.5684 66.0647C81.38 65.9211 81.2423 65.7202 81.1754 65.4917C81.1085 65.2632 81.1159 65.019 81.1967 64.7951C81.2774 64.5712 81.4272 64.3793 81.6239 64.2476L82.6588 63.5978L83.4868 63.064C83.6091 62.9832 83.746 62.9276 83.8896 62.9002C84.0332 62.8728 84.1808 62.8742 84.3239 62.9044C84.467 62.9346 84.6028 62.9929 84.7235 63.076C84.8443 63.1592 84.9476 63.2655 85.0276 63.3889C85.1077 63.5124 85.1628 63.6505 85.19 63.7954C85.2171 63.9404 85.2157 64.0893 85.1858 64.2337C85.1559 64.3781 85.0981 64.5151 85.0157 64.637C84.9333 64.7588 84.828 64.8631 84.7057 64.9439L83.8317 65.5009L82.8428 66.1275C82.6654 66.2463 82.4578 66.3108 82.2449 66.3132L82.2219 66.29ZM87.0974 62.9248C86.8637 62.9248 86.636 62.8501 86.4471 62.7112C86.2582 62.5723 86.1178 62.3766 86.0462 62.152C85.9746 61.9275 85.9755 61.6859 86.0487 61.4619C86.1219 61.2379 86.2636 61.0431 86.4535 60.9056C87.024 60.4987 87.5693 60.0569 88.0864 59.5827C88.3029 59.3827 88.5893 59.2776 88.8826 59.2907C89.1758 59.3037 89.452 59.4338 89.6502 59.6524C89.8484 59.8709 89.9525 60.1599 89.9396 60.4559C89.9267 60.7518 89.7977 61.0305 89.5812 61.2305C88.9979 61.7552 88.3835 62.2435 87.7414 62.6927C87.5565 62.8369 87.331 62.9181 87.0974 62.9248ZM90.9611 58.4687C90.8244 58.4956 90.6838 58.4956 90.5471 58.4687C90.2764 58.3601 90.0592 58.1479 89.9429 57.8783C89.8266 57.6088 89.8206 57.3038 89.9262 57.0298C90.0666 56.669 90.1743 56.2962 90.2482 55.9158C90.2768 55.7634 90.335 55.6182 90.4193 55.4885C90.5036 55.3588 90.6124 55.2471 90.7394 55.1598C90.8665 55.0725 91.0094 55.0114 91.1599 54.9798C91.3103 54.9482 91.4655 54.9469 91.6165 54.9758C91.7675 55.0048 91.9114 55.0635 92.0399 55.1485C92.1685 55.2336 92.2792 55.3434 92.3656 55.4716C92.4521 55.5999 92.5127 55.744 92.544 55.8959C92.5753 56.0478 92.5766 56.2044 92.5479 56.3567C92.4473 56.8642 92.3011 57.3614 92.111 57.8421C92.0315 58.054 91.8898 58.2364 91.7049 58.3649C91.52 58.4935 91.3006 58.5621 91.0761 58.5616" fill="#05A4D1"/>
<path d="M75.0277 150C33.6904 150 0 116.361 0 75.0281C0 33.6391 33.635 0 75.0277 0C116.365 0 150 33.6391 150 74.9719C149.945 116.361 116.365 150 75.0277 150ZM75.0277 7.076C37.5139 7.076 6.9819 37.5702 6.9819 75.0281C6.9819 112.486 37.5139 142.98 75.0277 142.98C112.542 142.98 143.018 112.486 143.018 75.0281C143.018 37.514 112.486 7.076 75.0277 7.076Z" fill="url(#paint0_linear_163_6873)"/>
<path d="M174.658 119.676C174.658 127.75 168.209 134.295 160.253 134.295C152.298 134.295 145.848 127.75 145.848 119.676C145.848 111.602 152.298 105.917 160.253 105.917C168.209 105.917 174.658 111.602 174.658 119.676Z" fill="white"/>
<path d="M160 135C151.711 135 145 128.279 145 120C145 111.721 151.711 105 160 105C168.289 105 175 111.721 175 120C175 128.234 168.246 135 160 135ZM160 106.38C152.5 106.38 146.404 112.478 146.404 120C146.404 127.522 152.5 133.62 160 133.62C167.5 133.62 173.596 127.522 173.596 120C173.596 112.478 167.5 106.38 160 106.38Z" fill="#878787"/>
<circle cx="160" cy="120" r="7.5" fill="#808285"/>
<path d="M163.346 118.905H161.159V116.719C161.167 116.562 161.143 116.405 161.089 116.257C161.034 116.11 160.95 115.975 160.842 115.861C160.734 115.747 160.603 115.656 160.459 115.594C160.314 115.532 160.159 115.5 160.001 115.5C159.844 115.5 159.689 115.532 159.544 115.594C159.4 115.656 159.269 115.747 159.161 115.861C159.053 115.975 158.969 116.11 158.914 116.257C158.86 116.405 158.836 116.562 158.844 116.719V118.905H156.657C156.505 118.905 156.355 118.935 156.215 118.993C156.075 119.051 155.947 119.136 155.84 119.243C155.733 119.35 155.647 119.478 155.589 119.618C155.531 119.758 155.501 119.908 155.501 120.06C155.501 120.212 155.531 120.362 155.589 120.502C155.647 120.642 155.733 120.77 155.84 120.877C155.947 120.984 156.075 121.07 156.215 121.128C156.355 121.186 156.505 121.216 156.657 121.216H158.844V123.402C158.859 123.698 158.988 123.977 159.203 124.182C159.419 124.386 159.704 124.5 160.001 124.5C160.298 124.5 160.584 124.386 160.799 124.182C161.015 123.977 161.143 123.698 161.159 123.402V121.216H163.346C163.497 121.216 163.648 121.186 163.788 121.128C163.928 121.07 164.056 120.984 164.163 120.877C164.27 120.77 164.355 120.642 164.413 120.502C164.472 120.362 164.501 120.212 164.501 120.06C164.501 119.908 164.472 119.758 164.413 119.618C164.355 119.478 164.27 119.35 164.163 119.243C164.056 119.136 163.928 119.051 163.788 118.993C163.648 118.935 163.497 118.905 163.346 118.905Z" fill="white"/>
<defs>
<linearGradient id="paint0_linear_163_6873" x1="0.00426672" y1="75.0026" x2="149.967" y2="75.0026" gradientUnits="userSpaceOnUse">
<stop stop-color="#F1F1F1"/>
<stop offset="0.327" stop-color="#808285"/>
<stop offset="0.5757" stop-color="#EBEBEB"/>
<stop offset="0.8946" stop-color="#808285"/>
</linearGradient>
</defs>
</svg>
