<svg width="175" height="150" viewBox="0 0 175 150" fill="none" xmlns="http://www.w3.org/2000/svg">
<path d="M117.154 96.9958H24.8906C24.7621 96.9967 24.6381 97.0424 24.5406 97.1249C24.4431 97.2073 24.3783 97.3212 24.3578 97.4462C24.3351 97.5693 24.3577 97.6963 24.4214 97.8045C24.4852 97.9126 24.586 97.9948 24.7057 98.0361C35.6447 101.93 49.2695 103.903 65.1996 103.903C82.7302 103.734 100.196 101.776 117.317 98.0576C117.447 98.0248 117.56 97.9471 117.636 97.8387C117.712 97.7304 117.745 97.5986 117.731 97.4677C117.712 97.3322 117.642 97.2086 117.535 97.1212C117.429 97.0339 117.293 96.9891 117.154 96.9958Z" fill="#D0D2D3"/>
<path d="M92.7104 91.6433C93.0149 89.7449 92.2972 85.7871 93.5586 82.5265C93.6673 82.2369 93.7434 82.0546 93.8087 81.9045C91.2207 80.1455 87.491 80.6388 84.0223 81.7865C84.2724 83.3953 84.4029 85.0041 84.5334 86.6452C84.5334 87.1707 84.6204 87.7177 84.6747 88.2755V88.5865C84.7313 90.2972 85.0502 91.9896 85.6207 93.6061L85.7295 93.9171C85.8884 94.6893 86.2291 95.4138 86.7239 96.0323C87.2188 96.6508 87.854 97.146 88.5784 97.478C88.8767 97.6423 89.1997 97.7582 89.5353 97.8212C90.1663 97.9388 90.8069 97.9999 91.4491 98.0036H91.9928C94.5372 98.1537 95.6246 96.931 95.9508 95.955C96.0756 95.2029 95.896 94.4326 95.4506 93.8099C94.7676 92.8426 93.8162 92.0903 92.7104 91.6433Z" fill="#D0D2D3"/>
<path d="M75.0271 146.462C35.5738 146.462 3.49029 114.383 3.49029 74.9451C3.49029 35.5069 35.5738 3.48438 75.0271 3.48438C114.48 3.48438 146.508 35.563 146.508 75.0012C146.508 114.439 114.425 146.462 75.0271 146.462Z" fill="white"/>
<path d="M65.1872 15.5781L71.6642 23.9362C56.5744 30.2792 37.271 42.553 26.3947 65.7724C26.2754 66.025 26.2079 66.2982 26.1958 66.5766C26.1838 66.8549 26.2276 67.1329 26.3246 67.3945C26.4217 67.6561 26.5701 67.8963 26.7614 68.1013C26.9526 68.3062 27.183 68.472 27.4394 68.589C27.7203 68.7145 28.0247 68.7808 28.3331 68.7836C28.7428 68.7842 29.1441 68.6691 29.4896 68.452C29.8351 68.235 30.1105 67.9249 30.2832 67.5585C40.5443 45.8046 58.6057 34.1262 72.9294 28.0237L72.4651 38.2594C76.3072 32.0996 83.4575 25.1956 89.5166 20.5815C81.7628 20.1579 71.8963 18.4863 65.1872 15.5781Z" fill="#767676"/>
<path fill-rule="evenodd" clip-rule="evenodd" d="M114.236 34.6828C116.468 37.0313 117.36 37.4406 120.906 37.7411L125 38.0882L124.567 40.3034C124.328 41.5217 124.133 43.4912 124.133 44.6799C124.133 45.9885 123.432 47.559 122.356 48.6582C120.912 50.1347 119.853 50.4752 116.703 50.4752C114.571 50.4752 112.29 50.8919 111.634 51.4004C110.979 51.9096 108.609 56.1558 106.369 60.8371C104.128 65.5185 101.675 70.3701 100.918 71.618C99.1678 74.5001 97.7973 84.2744 98.3193 90.1541C98.8239 95.8436 100.491 99.465 103.402 101.195C108.221 104.059 107.993 105.986 102.832 105.986C99.1258 105.986 98.7631 105.815 96.3406 102.921C94.9288 101.235 93.2144 98.1543 92.5302 96.0745C91.4153 92.6869 91.2379 92.4855 90.8216 94.1435C90.1316 96.8909 91.2538 100.086 93.7147 102.383C96.9386 105.394 96.539 106.094 91.7454 105.838C87.6505 105.619 87.568 105.569 85.813 102.311C83.9031 98.7641 83.3702 91.9075 84.5033 85.4468L85.055 82.3012H81.5914C78.0373 82.3012 70.7872 80.4516 66.1145 78.3526L63.4806 77.1698L61.5012 80.0904C58.8297 84.0317 54.5653 87.4874 48.4758 90.647C40.3649 94.8562 37.264 100.056 40.8738 103.395C43.1595 105.51 42.6274 105.986 37.9779 105.986H37.6143C35.416 105.986 33.6339 104.204 33.6339 102.005C33.6339 99.8159 34.14 96.7872 34.7575 95.2751C36.4553 91.1222 35.6886 90.6263 32.3459 93.7134C28.8975 96.899 27.6805 100.754 29.4557 102.87C31.9144 105.8 31.7493 105.986 26.6958 105.986H26.4296C23.976 105.986 22.0604 103.864 22.3098 101.423C22.9745 94.9243 25.6982 89.1838 28.7331 87.8878C33.1879 85.9849 33.8728 84.5261 34.4136 75.788C34.6829 71.4323 35.2621 66.9522 35.6994 65.8316L36.4951 63.7948L30.1399 63.8643C22.3431 63.9494 18.8187 63.0383 15.5304 60.0866L13 57.8159L15.534 58.3458C22.1332 59.7269 40.2273 57.9906 44.6915 55.5481C48.1399 53.6615 51.4912 53.2152 65.8517 52.7304C86.891 52.0206 90.0375 50.7727 97.722 40.0932C102.784 33.0582 104.221 31.9717 108.46 31.9717C111.193 31.9717 112.036 32.3677 114.236 34.6828ZM99.9707 41.9406C100.59 43.5911 103.193 47.3503 106.333 46.2051C107.822 45.6623 109.205 43.3584 109.205 43.3584C109.205 43.3584 106.333 47.6285 103.462 44.7818C99.8007 41.153 99.4198 40.4714 99.9707 41.9406Z" fill="#D7D7D7"/>
<path d="M49.9231 67.5977C53.0637 66.9972 55.1743 66.4019 56.345 65.7863C58.1135 64.8565 63.6007 60.6035 63.6007 60.1627C63.6007 60.0779 63.2334 59.7953 62.7845 59.5346M49.9231 67.5977L62.383 60.2261L62.7845 59.5346M49.9231 67.5977C46.5972 68.2338 46.093 68.3015 42.574 68.5856M49.9231 67.5977L21.0381 101.425M62.7845 59.5346L62.383 60.2261M62.7845 59.5346L62.383 60.2261M62.383 60.2261C62.4048 60.2387 62.4263 60.2514 62.4474 60.264M62.383 60.2261L62.4474 60.264M21.0381 101.425C21.3159 100.849 21.4373 99.2502 21.545 97.8306C21.5904 97.2332 21.6333 96.6676 21.6845 96.2236C21.7998 95.2215 21.9499 94.9281 22.8812 93.8813C24.0983 92.5135 24.213 92.2156 24.9099 88.6161C25.4113 86.0274 26.3022 82.8232 28.295 76.4418M21.0381 101.425C20.8689 101.775 20.7303 102.425 20.7303 102.868C20.7303 104.095 21.4597 104.419 24.2207 104.421C27.3074 104.423 27.6379 104.002 26.2017 101.896M21.0381 101.425L26.2017 101.896M28.295 76.4418L29.2976 73.2315M28.295 76.4418L27.5318 76.2034L28.4246 73.3444M28.295 76.4418L27.5318 76.2034C25.5394 82.5831 24.6358 85.8264 24.1249 88.464L24.1249 88.4641C23.7712 90.2907 23.5811 91.1839 23.3445 91.7981C23.1309 92.3523 22.8802 92.6795 22.2838 93.3498L22.2838 93.3498C21.823 93.8677 21.4858 94.2728 21.2648 94.7054C21.0298 95.1652 20.9508 95.6048 20.8901 96.132M29.2976 73.2315L28.0707 71.2742C26.0715 68.0849 24.8136 65.3935 24.8136 64.3054C24.8136 63.0049 25.2894 62.5853 26.6149 62.717M29.2976 73.2315L28.5343 72.9932L28.4246 73.3444M29.2976 73.2315L28.6201 73.6562L28.4246 73.3444M26.6149 62.717C28.736 62.9275 30.5647 64.3391 32.9799 67.6303C33.7883 68.732 34.5553 69.6332 34.6843 69.6332C34.8131 69.6332 36.021 69.4474 37.3683 69.2205C38.7157 68.9935 41.0582 68.7079 42.574 68.5856M26.6149 62.717L26.6939 61.9213C26.6939 61.9213 26.6939 61.9213 26.6939 61.9213L26.6149 62.717ZM42.574 68.5856L42.5097 67.7886M42.574 68.5856L42.5096 67.7886C42.5096 67.7886 42.5097 67.7886 42.5097 67.7886M42.5097 67.7886C46.0011 67.5067 46.4766 67.4428 49.7729 66.8123L49.773 66.8123C52.9148 66.2115 54.9184 65.6331 55.9729 65.0786L55.973 65.0785C56.7861 64.651 58.5476 63.3982 60.1462 62.1591C60.9357 61.5472 61.6631 60.956 62.1885 60.4954C62.283 60.4125 62.3694 60.3353 62.4474 60.264M42.5097 67.7886L62.4474 60.264M28.4246 73.3444L20.8901 96.132M20.8901 96.132L21.6844 96.2235L20.8901 96.1321C20.8378 96.5862 20.7922 97.1852 20.7454 97.7999C20.7142 98.2085 20.6826 98.624 20.6481 99.0083C20.6033 99.5078 20.553 99.9701 20.4918 100.351C20.4267 100.757 20.3612 100.988 20.3181 101.077L20.318 101.077C20.0897 101.55 19.9307 102.321 19.9307 102.868C19.9307 103.245 19.985 103.646 20.1866 104.013C20.398 104.398 20.7243 104.661 21.1151 104.834C21.8212 105.149 22.8639 105.22 24.2202 105.22L20.8901 96.132ZM26.2017 101.896L25.5562 100.95M26.2017 101.896L25.8949 99.3119M25.5562 100.95L25.8949 99.3119M25.5562 100.95L26.3393 101.112L26.408 100.78M25.5562 100.95L26.2167 100.5L26.408 100.78M25.8949 99.3119C26.3401 97.1573 26.3453 97.151 28.2041 94.8812M25.8949 99.3119L28.2041 94.8812M26.408 100.78L26.6779 99.4738L26.678 99.4738C26.9414 98.1986 27.0303 97.814 27.355 97.2876C27.6219 96.8549 28.0262 96.3612 28.7776 95.4435C29.0832 95.0703 29.4461 94.6271 29.8806 94.0893L29.8806 94.0893C31.294 92.3395 32.8961 90.4317 33.4406 89.846L33.4407 89.8459L34.2318 88.9946M26.408 100.78L26.8622 101.446L26.8623 101.446C27.2249 101.977 27.5235 102.468 27.683 102.904C27.8403 103.334 27.9378 103.931 27.5363 104.442C27.1911 104.882 26.6306 105.036 26.163 105.112C25.6524 105.196 24.9982 105.221 24.2203 105.22L34.2318 88.9946M34.2318 88.9946L35.2161 88.9968H35.2162C35.6806 88.9978 36.0314 89.007 36.2991 89.0283C36.456 89.0408 36.5685 89.0564 36.6478 89.0717C36.6404 89.0988 36.6305 89.1326 36.6176 89.1738C36.5677 89.3329 36.4916 89.5437 36.3925 89.794C36.1949 90.2931 35.9191 90.9156 35.6141 91.536L36.3317 91.8887L35.6141 91.536C35.0817 92.6192 34.7576 93.2864 34.6004 93.8331C34.423 94.45 34.4568 94.9121 34.5141 95.5169L34.5142 95.517C34.5472 95.8651 34.5964 96.1553 34.7104 96.4435C34.8199 96.7204 34.9748 96.9552 35.1352 97.1946C35.1565 97.2264 35.1787 97.2594 35.202 97.294C35.5303 97.7818 36.0618 98.5716 36.9588 100.291L34.2318 88.9946ZM38.9781 103.046C38.601 102.835 38.2831 102.475 37.9881 102.054C37.6831 101.619 37.3474 101.037 36.9589 100.291L38.9781 103.046ZM38.9781 103.046C39.2515 103.198 39.805 103.599 40.1724 103.922L40.1725 103.922L40.1764 103.926C40.5288 104.235 40.8569 104.524 41.4441 104.65C41.9136 104.751 42.5587 104.747 43.5436 104.74L43.5846 104.74L43.6407 104.74L43.6963 104.732C43.7699 104.721 43.829 104.722 43.9845 104.727C44.0062 104.727 44.0298 104.728 44.0555 104.728C44.2552 104.734 44.5104 104.734 44.8464 104.68C45.2364 104.616 45.5639 104.402 45.7735 104.073C45.9676 103.769 46.0283 103.42 46.0283 103.105C46.0283 102.677 45.8438 102.319 45.6024 102.018C45.3688 101.727 45.0368 101.433 44.6302 101.116L44.6301 101.116C44.3028 100.861 43.9533 100.626 43.6469 100.451C43.4944 100.364 43.3406 100.285 43.1975 100.226C43.0859 100.179 42.8747 100.097 42.6473 100.097C42.3879 100.097 42.0606 99.8983 41.802 99.2611C41.5595 98.6636 41.5029 97.9384 41.6105 97.4455C41.6183 97.4308 41.6372 97.3954 41.6752 97.3351C41.7437 97.2262 41.8442 97.0824 41.9731 96.9117C42.2298 96.5718 42.5747 96.1581 42.9424 95.7582L42.9424 95.7581C43.7474 94.8824 44.8445 93.3871 45.4064 92.3971L45.4064 92.397C45.742 91.8056 45.9866 91.4268 46.1652 91.2036C46.172 91.1952 46.1785 91.1871 46.1848 91.1794C46.1975 91.1841 46.2107 91.1889 46.2242 91.1938C46.2581 91.2062 46.2946 91.2196 46.334 91.234C46.6308 91.3423 47.0418 91.4892 47.5224 91.6309C48.4712 91.9105 49.7485 92.1876 51.021 92.0855L51.021 92.0855C53.3009 91.9024 54.3998 91.8351 55.055 91.9167C55.3484 91.9533 55.4989 92.0153 55.6095 92.0839C55.7368 92.1629 55.8672 92.2844 56.094 92.5369L56.0941 92.5369C56.5107 93.0004 57.6424 94.691 59.6108 99.0568C60.1919 100.346 61.0572 102.092 61.5421 102.95C61.5421 102.95 61.5421 102.95 61.5421 102.95L62.3946 104.459L62.6061 104.833L63.0349 104.863L65.0763 105.006C66.3764 105.097 67.8255 105.052 69.0036 104.92C69.5914 104.854 70.1329 104.764 70.5649 104.652C70.7797 104.596 70.9882 104.528 71.1696 104.446C71.3255 104.375 71.571 104.246 71.7419 104.013L71.742 104.012C71.9077 103.786 72.0645 103.477 72.0237 103.069C71.991 102.742 71.8346 102.444 71.6973 102.204C71.0509 101.073 70.3535 100.299 69.336 100.068L69.3358 100.068C69.0675 100.007 68.7182 99.8209 68.3833 99.5252C68.0513 99.2319 67.7979 98.8875 67.6745 98.5822C67.6055 98.4117 67.5867 98.3486 67.5795 98.3071C67.5762 98.2878 67.5714 98.2566 67.5905 98.1693C67.6438 97.9249 67.8108 97.5258 68.2415 96.5616L68.2723 96.4928L68.2896 96.4195C68.5668 95.2475 68.8125 94.5364 69.0202 93.9353C69.0976 93.7115 69.1697 93.5029 69.2361 93.2914C69.4948 92.4685 69.6072 91.7516 69.5009 90.4306L69.4948 90.3556L69.4749 90.2831C68.8164 87.8842 68.555 86.8754 68.6299 85.9956C68.7028 85.1405 69.0979 84.3663 70.1258 82.451C70.9098 80.99 71.3711 80.0945 71.749 79.046C72.1233 78.0073 72.4096 76.8349 72.8761 74.8276L73.4187 72.493L76.2518 73.1577L76.3471 73.1801L76.445 73.1788L76.4345 72.3793C76.445 73.1788 76.4451 73.1788 76.4452 73.1788L76.4456 73.1788L76.4465 73.1788L76.4488 73.1787L76.4561 73.1786L76.4805 73.1781C76.5011 73.1776 76.5302 73.1767 76.5668 73.1754C76.6401 73.1727 76.7439 73.1679 76.8713 73.1596C77.1252 73.1428 77.4771 73.1115 77.8688 73.0524C78.6137 72.9402 79.6502 72.7084 80.3847 72.1811C80.7027 71.9528 80.9931 71.6134 81.178 71.38C81.2772 71.2546 81.3605 71.141 81.4192 71.0584C81.4321 71.0403 81.4438 71.0236 81.4544 71.0085C81.7433 70.7537 81.9849 70.5467 82.1937 70.3679C82.2665 70.3055 82.3354 70.2465 82.4008 70.1901C82.6601 69.9667 82.8854 69.7682 83.0656 69.5728C83.2588 69.3633 83.4104 69.1474 83.5278 68.8805C83.6383 68.6293 83.7056 68.3612 83.7651 68.0743L38.9781 103.046ZM42.3537 95.217C41.5874 96.0506 40.9074 96.9506 40.8427 97.2172C40.5156 98.5641 41.1505 100.896 42.6473 100.896C42.8678 100.896 43.5388 101.279 44.1384 101.747C44.926 102.361 45.2287 102.738 45.2287 103.105C45.2287 103.548 45.0539 103.836 44.7184 103.89C44.4166 103.939 44.2003 103.933 44.008 103.927C43.8603 103.923 43.7268 103.919 43.5794 103.941C41.4679 103.954 41.4045 103.941 40.7004 103.322L42.3537 95.217ZM42.3537 95.217C43.1199 94.3835 44.1806 92.937 44.7109 92.0024L42.3537 95.217ZM28.2041 94.8812C28.5041 94.5149 28.8524 94.0896 29.2586 93.5868L28.2041 94.8812ZM45.9194 91.0861C45.9204 91.0864 45.9218 91.0868 45.9235 91.0873C45.9087 91.0839 45.9059 91.0823 45.9194 91.0861Z" fill="#C1F1FF" stroke="#05A4D1" stroke-width="1.59921"/>
<path d="M75.0277 150C33.6904 150 0 116.348 0 75C0 33.6517 33.635 0 75.0277 0C116.365 0 150 33.6517 150 75C150 116.348 116.365 150 75.0277 150ZM75.0277 7.02247C37.5139 7.02247 6.9819 37.5281 6.9819 75C6.9819 112.472 37.5139 142.978 75.0277 142.978C112.542 142.978 143.018 112.472 143.018 75C143.018 37.4719 112.486 7.02247 75.0277 7.02247Z" fill="url(#paint0_linear_163_6920)"/>
<path d="M96.0724 121.673L95.5496 121.9L94.3222 122.389L93.5607 122.673L98.4932 134.118C98.6003 134.358 98.7741 134.561 98.9938 134.704C99.2135 134.847 99.4698 134.924 99.732 134.925C99.9147 134.922 100.095 134.888 100.266 134.823C100.594 134.681 100.852 134.414 100.984 134.082C101.116 133.75 101.112 133.379 100.971 133.05L96.0724 121.673Z" fill="#D0D2D3"/>
<path d="M113.256 125.572L106.437 116.389L105.164 117.287L111.983 126.493C112.057 126.589 112.151 126.668 112.259 126.723C112.368 126.779 112.487 126.808 112.608 126.811C112.776 126.814 112.939 126.762 113.074 126.663C113.159 126.604 113.231 126.529 113.286 126.442C113.341 126.355 113.378 126.258 113.395 126.156C113.412 126.054 113.408 125.95 113.385 125.85C113.361 125.75 113.317 125.655 113.256 125.572Z" fill="#D0D2D3"/>
<path d="M83.9774 125.266L82.4544 125.493L81.8634 125.573L84.1365 138.223C84.1855 138.54 84.3466 138.829 84.5906 139.038C84.8346 139.247 85.1453 139.361 85.4662 139.36C85.5454 139.37 85.6257 139.37 85.7049 139.36C85.8824 139.333 86.0528 139.272 86.2064 139.179C86.3599 139.087 86.4935 138.964 86.5992 138.819C86.705 138.674 86.7809 138.51 86.8225 138.335C86.8641 138.161 86.8705 137.98 86.8414 137.803L84.5684 125.221L83.9774 125.266Z" fill="#D0D2D3"/>
<path d="M90.4002 123.743L89.491 124.005L88.3545 124.311L87.7748 124.459L91.4004 136.564C91.4846 136.84 91.6543 137.082 91.8851 137.256C92.1159 137.43 92.3959 137.526 92.6846 137.53C92.8167 137.546 92.9503 137.546 93.0824 137.53C93.4222 137.422 93.7063 137.186 93.8741 136.872C94.0419 136.557 94.08 136.19 93.9803 135.848L90.4002 123.743Z" fill="#D0D2D3"/>
<path d="M101.367 119.334L101.117 119.47L99.7646 120.221L99.5032 120.357L105.481 130.722C105.581 130.878 105.717 131.007 105.877 131.098C106.037 131.189 106.218 131.239 106.402 131.245C106.589 131.247 106.773 131.2 106.936 131.109C107.057 131.039 107.163 130.946 107.247 130.835C107.331 130.724 107.391 130.596 107.425 130.461C107.462 130.326 107.472 130.186 107.454 130.047C107.437 129.909 107.392 129.775 107.323 129.654L101.367 119.334Z" fill="#D0D2D3"/>
<path d="M64.6577 124.788L64.0781 124.663L61.805 137.836C61.7719 138.009 61.774 138.186 61.8111 138.358C61.8482 138.53 61.9196 138.693 62.021 138.836C62.1208 138.982 62.2486 139.106 62.3969 139.201C62.5452 139.297 62.711 139.362 62.8847 139.393H63.1348C63.4538 139.391 63.7618 139.276 64.0034 139.068C64.245 138.859 64.4045 138.572 64.4531 138.257L66.7262 125.129L66.1693 125.027L64.6577 124.788Z" fill="#D0D2D3"/>
<path d="M43.0634 115.275L35.1077 125.993C35.0206 126.109 34.9675 126.246 34.9545 126.39C34.9416 126.534 34.9692 126.678 35.0343 126.808C35.0994 126.937 35.1993 127.045 35.3228 127.12C35.4463 127.195 35.5883 127.234 35.7328 127.232C35.8539 127.234 35.9738 127.208 36.0825 127.154C36.1912 127.101 36.2856 127.022 36.3579 126.925L44.3136 116.219C43.9044 115.912 43.4953 115.594 43.0634 115.275Z" fill="#D0D2D3"/>
<path d="M49.4397 119.229L48.11 118.445L47.8599 118.286L41.0976 130.004C41.0265 130.125 40.98 130.258 40.961 130.397C40.9419 130.536 40.9506 130.677 40.9865 130.812C41.0225 130.948 41.085 131.075 41.1704 131.186C41.2558 131.297 41.3624 131.39 41.484 131.459C41.7319 131.583 42.0166 131.612 42.2845 131.541C42.5525 131.47 42.7851 131.303 42.9388 131.073L49.6897 119.366L49.4397 119.229Z" fill="#D0D2D3"/>
<path d="M78.0248 125.583H76.8087H75.604L76.3768 138.904C76.4001 139.319 76.5815 139.709 76.8838 139.995C77.1861 140.28 77.5863 140.439 78.0021 140.438H78.093C78.3096 140.429 78.5221 140.376 78.7176 140.283C78.913 140.189 79.0872 140.056 79.2295 139.892C79.512 139.583 79.6628 139.175 79.65 138.756L78.8772 125.549L78.0248 125.583Z" fill="#D0D2D3"/>
<path d="M54.8506 121.639C54.3733 121.435 53.9073 121.23 53.4413 121.003L52.9072 120.753L47.4859 133.323C47.3556 133.652 47.3556 134.018 47.4859 134.346C47.5832 134.602 47.7561 134.821 47.9816 134.976C48.207 135.13 48.4743 135.212 48.7475 135.21C49.0113 135.209 49.2691 135.132 49.4892 134.986C49.7093 134.841 49.8821 134.634 49.9863 134.392L55.3848 121.89L54.8506 121.639Z" fill="#D0D2D3"/>
<path d="M70.5447 125.403L69.6696 125.323L68.8854 138.803C68.8658 139.221 69.013 139.63 69.2946 139.94C69.5883 140.262 69.9958 140.458 70.4311 140.485C70.846 140.483 71.2447 140.323 71.5464 140.039C71.8481 139.754 72.0304 139.365 72.0563 138.951L72.8405 125.528L71.9995 125.471L70.5447 125.403Z" fill="#D0D2D3"/>
<path d="M59.1781 123.298L58.3712 123.025L54.4843 135.994C54.3819 136.337 54.4202 136.708 54.5907 137.023C54.7612 137.338 55.0499 137.573 55.3935 137.676C55.5154 137.711 55.6415 137.73 55.7685 137.733C56.0593 137.731 56.3418 137.636 56.5749 137.462C56.8079 137.288 56.9794 137.045 57.0642 136.767L60.9284 123.855L60.3942 123.685L59.1781 123.298Z" fill="#D0D2D3"/>
<path d="M82.216 113.4H65.9183C65.5131 113.402 65.1156 113.511 64.767 113.718C64.4184 113.924 64.1312 114.22 63.9353 114.575C63.7395 114.929 63.642 115.33 63.6529 115.735C63.6638 116.14 63.7828 116.535 63.9976 116.878L72.1464 129.813C72.3515 130.136 72.6351 130.403 72.971 130.588C73.3068 130.773 73.6839 130.87 74.0672 130.87C74.4562 130.875 74.8403 130.781 75.1826 130.596C75.5248 130.411 75.8139 130.141 76.022 129.813L84.1595 116.935C84.3738 116.592 84.4927 116.199 84.5042 115.795C84.5156 115.39 84.4191 114.991 84.2245 114.636C84.03 114.282 83.7445 113.986 83.3974 113.779C83.0504 113.571 82.6544 113.46 82.2502 113.457L82.216 113.4Z" fill="#767676"/>
<path d="M82.2065 115.673L74.0689 128.55L65.9201 115.673H82.2065Z" fill="white"/>
<path d="M159.999 134.287C152.104 134.287 145.701 127.887 145.701 119.976C145.701 112.065 152.104 105.665 159.999 105.665C167.894 105.665 174.297 112.065 174.297 119.976C174.297 127.887 167.894 134.287 159.999 134.287Z" fill="white"/>
<path d="M160 135C151.711 135 145 128.244 145 119.978C145 111.711 151.711 105 160 105C168.289 105 175 111.711 175 119.978C175 128.244 168.289 135 160 135ZM160 106.378C152.5 106.378 146.404 112.467 146.404 119.978C146.404 127.489 152.5 133.578 160 133.578C167.5 133.578 173.596 127.489 173.596 119.978C173.596 112.511 167.5 106.378 160 106.378Z" fill="#878787"/>
<mask id="path-24-outside-1_163_6920" maskUnits="userSpaceOnUse" x="152.972" y="111.787" width="13" height="17" fill="black">
<rect fill="white" x="152.972" y="111.787" width="13" height="17"/>
<path fill-rule="evenodd" clip-rule="evenodd" d="M162.125 119.534L161.977 119.566C161.794 119.65 161.712 119.868 161.794 120.053C161.806 120.08 162.967 122.768 161.42 124.601C161.356 124.676 161.325 124.772 161.332 124.871C161.34 124.968 161.386 125.058 161.459 125.123C161.605 125.248 161.846 125.231 161.971 125.083C163.818 122.893 162.514 119.878 162.456 119.75C162.396 119.615 162.263 119.534 162.125 119.534ZM161.695 125.78C161.474 125.78 161.261 125.7 161.094 125.555C160.907 125.392 160.793 125.165 160.771 124.915C160.753 124.665 160.831 124.421 160.992 124.231C162.294 122.689 161.291 120.308 161.28 120.285C161.074 119.814 161.283 119.258 161.746 119.047C162.206 118.835 162.754 119.045 162.965 119.515C163.029 119.658 164.472 122.991 162.396 125.452C162.219 125.66 161.964 125.78 161.695 125.78ZM159.391 113.365C158.655 113.69 154.535 119.731 154.535 122.423C154.535 125.041 156.817 127.171 159.621 127.171C162.424 127.171 164.706 125.041 164.706 122.423C164.706 119.792 160.164 113.799 159.391 113.365ZM159.619 127.741C156.506 127.741 153.972 125.355 153.972 122.423C153.972 119.822 157.503 114.249 158.825 113.085C159.083 112.856 159.277 112.767 159.461 112.791C160.393 112.928 165.266 119.667 165.266 122.423C165.266 125.355 162.733 127.741 159.619 127.741Z"/>
</mask>
<path fill-rule="evenodd" clip-rule="evenodd" d="M162.125 119.534L161.977 119.566C161.794 119.65 161.712 119.868 161.794 120.053C161.806 120.08 162.967 122.768 161.42 124.601C161.356 124.676 161.325 124.772 161.332 124.871C161.34 124.968 161.386 125.058 161.459 125.123C161.605 125.248 161.846 125.231 161.971 125.083C163.818 122.893 162.514 119.878 162.456 119.75C162.396 119.615 162.263 119.534 162.125 119.534ZM161.695 125.78C161.474 125.78 161.261 125.7 161.094 125.555C160.907 125.392 160.793 125.165 160.771 124.915C160.753 124.665 160.831 124.421 160.992 124.231C162.294 122.689 161.291 120.308 161.28 120.285C161.074 119.814 161.283 119.258 161.746 119.047C162.206 118.835 162.754 119.045 162.965 119.515C163.029 119.658 164.472 122.991 162.396 125.452C162.219 125.66 161.964 125.78 161.695 125.78ZM159.391 113.365C158.655 113.69 154.535 119.731 154.535 122.423C154.535 125.041 156.817 127.171 159.621 127.171C162.424 127.171 164.706 125.041 164.706 122.423C164.706 119.792 160.164 113.799 159.391 113.365ZM159.619 127.741C156.506 127.741 153.972 125.355 153.972 122.423C153.972 119.822 157.503 114.249 158.825 113.085C159.083 112.856 159.277 112.767 159.461 112.791C160.393 112.928 165.266 119.667 165.266 122.423C165.266 125.355 162.733 127.741 159.619 127.741Z" fill="#767676"/>
<path d="M161.977 119.566L161.941 119.399L161.923 119.403L161.906 119.411L161.977 119.566ZM161.794 120.053L161.638 120.122L161.639 120.124L161.794 120.053ZM161.42 124.601L161.55 124.712L161.551 124.711L161.42 124.601ZM161.332 124.871L161.162 124.884L161.162 124.885L161.332 124.871ZM161.459 125.123L161.345 125.251L161.348 125.253L161.459 125.123ZM161.971 125.083L161.84 124.973L161.84 124.973L161.971 125.083ZM162.456 119.75L162.299 119.819L162.3 119.821L162.456 119.75ZM161.094 125.555L160.982 125.684L160.983 125.685L161.094 125.555ZM160.771 124.915L160.601 124.928L160.601 124.93L160.771 124.915ZM160.992 124.231L160.861 124.121L160.992 124.231ZM161.28 120.285L161.124 120.353L161.125 120.355L161.28 120.285ZM161.746 119.047L161.817 119.202L161.818 119.202L161.746 119.047ZM162.965 119.515L163.121 119.446L163.121 119.445L162.965 119.515ZM162.396 125.452L162.525 125.563L162.526 125.562L162.396 125.452ZM158.825 113.085L158.938 113.213L158.938 113.212L158.825 113.085ZM159.461 112.791L159.486 112.622L159.482 112.622L159.461 112.791ZM162.089 119.368L161.941 119.399L162.013 119.733L162.161 119.701L162.089 119.368ZM161.906 119.411C161.637 119.533 161.518 119.853 161.638 120.122L161.95 119.984C161.905 119.883 161.951 119.766 162.048 119.721L161.906 119.411ZM161.639 120.124C161.638 120.123 161.711 120.289 161.795 120.567C161.879 120.844 161.974 121.229 162.022 121.668C162.118 122.55 162.021 123.625 161.29 124.491L161.551 124.711C162.367 123.744 162.462 122.559 162.361 121.631C162.26 120.703 161.96 120.006 161.949 119.982L161.639 120.124ZM161.291 124.49C161.197 124.6 161.152 124.739 161.162 124.884L161.502 124.859C161.498 124.804 161.515 124.753 161.55 124.712L161.291 124.49ZM161.162 124.885C161.174 125.027 161.24 125.157 161.345 125.251L161.572 124.996C161.531 124.959 161.506 124.91 161.502 124.857L161.162 124.885ZM161.348 125.253C161.565 125.438 161.915 125.415 162.102 125.192L161.84 124.973C161.778 125.047 161.646 125.059 161.57 124.994L161.348 125.253ZM162.101 125.193C163.065 124.05 163.203 122.696 163.098 121.627C162.993 120.558 162.644 119.753 162.611 119.68L162.3 119.821C162.325 119.875 162.658 120.642 162.758 121.66C162.858 122.678 162.723 123.926 161.84 124.973L162.101 125.193ZM162.612 119.681C162.523 119.482 162.328 119.364 162.125 119.364V119.705C162.197 119.705 162.268 119.748 162.299 119.819L162.612 119.681ZM161.695 125.61C161.516 125.61 161.342 125.544 161.206 125.426L160.983 125.685C161.18 125.855 161.432 125.951 161.695 125.951V125.61ZM161.206 125.427C161.053 125.293 160.959 125.107 160.941 124.901L160.601 124.93C160.626 125.223 160.761 125.491 160.982 125.684L161.206 125.427ZM160.941 124.903C160.927 124.696 160.991 124.497 161.122 124.341L160.861 124.121C160.671 124.346 160.58 124.634 160.601 124.928L160.941 124.903ZM161.122 124.341C161.817 123.518 161.889 122.481 161.798 121.669C161.706 120.856 161.446 120.237 161.435 120.214L161.125 120.355C161.124 120.353 161.186 120.499 161.259 120.743C161.332 120.987 161.415 121.325 161.459 121.708C161.546 122.478 161.469 123.402 160.861 124.121L161.122 124.341ZM161.436 120.216C161.267 119.83 161.44 119.374 161.817 119.202L161.676 118.892C161.126 119.142 160.881 119.799 161.124 120.353L161.436 120.216ZM161.818 119.202C162.189 119.031 162.636 119.199 162.81 119.585L163.121 119.445C162.871 118.891 162.223 118.639 161.675 118.892L161.818 119.202ZM162.809 119.584C162.837 119.648 163.206 120.497 163.313 121.63C163.42 122.763 163.263 124.159 162.265 125.342L162.526 125.562C163.604 124.284 163.764 122.783 163.653 121.598C163.541 120.414 163.157 119.526 163.121 119.446L162.809 119.584ZM162.266 125.341C162.12 125.512 161.912 125.61 161.695 125.61V125.951C162.016 125.951 162.317 125.807 162.525 125.563L162.266 125.341ZM159.322 113.209C159.251 113.241 159.176 113.298 159.102 113.364C159.025 113.432 158.939 113.519 158.845 113.623C158.657 113.83 158.432 114.107 158.185 114.437C157.691 115.096 157.104 115.971 156.54 116.919C155.977 117.867 155.434 118.892 155.033 119.852C154.633 120.807 154.364 121.715 154.364 122.423H154.705C154.705 121.785 154.952 120.929 155.347 119.984C155.741 119.043 156.275 118.033 156.834 117.094C157.392 116.155 157.973 115.29 158.458 114.641C158.701 114.317 158.919 114.048 159.097 113.852C159.187 113.754 159.264 113.676 159.329 113.619C159.396 113.559 159.439 113.531 159.46 113.522L159.322 113.209ZM154.364 122.423C154.364 125.146 156.734 127.341 159.621 127.341V127C156.9 127 154.705 124.936 154.705 122.423H154.364ZM159.621 127.341C162.507 127.341 164.877 125.146 164.877 122.423H164.536C164.536 124.936 162.341 127 159.621 127V127.341ZM164.877 122.423C164.877 121.726 164.579 120.829 164.139 119.887C163.697 118.938 163.1 117.921 162.481 116.977C161.862 116.031 161.219 115.155 160.681 114.487C160.412 114.152 160.168 113.869 159.966 113.654C159.769 113.446 159.597 113.285 159.474 113.217L159.308 113.514C159.378 113.554 159.517 113.676 159.717 113.888C159.911 114.094 160.149 114.371 160.415 114.701C160.946 115.36 161.583 116.227 162.196 117.164C162.809 118.1 163.397 119.102 163.83 120.031C164.266 120.965 164.536 121.805 164.536 122.423H164.877ZM159.619 127.57C156.59 127.57 154.143 125.251 154.143 122.423H153.802C153.802 125.459 156.421 127.912 159.619 127.912V127.57ZM154.143 122.423C154.143 121.805 154.354 120.993 154.704 120.092C155.052 119.195 155.53 118.226 156.052 117.299C156.573 116.372 157.135 115.49 157.648 114.768C158.164 114.043 158.623 113.49 158.938 113.213L158.712 112.956C158.366 113.261 157.888 113.842 157.37 114.57C156.85 115.302 156.281 116.194 155.754 117.131C155.228 118.068 154.741 119.052 154.385 119.969C154.032 120.881 153.802 121.741 153.802 122.423H154.143ZM158.938 113.212C159.188 112.991 159.332 112.946 159.439 112.96L159.482 112.622C159.222 112.588 158.978 112.721 158.712 112.957L158.938 113.212ZM159.436 112.96C159.456 112.963 159.505 112.98 159.585 113.034C159.662 113.084 159.755 113.159 159.863 113.257C160.078 113.453 160.339 113.732 160.631 114.076C161.213 114.764 161.906 115.699 162.57 116.718C163.234 117.737 163.868 118.834 164.335 119.846C164.805 120.864 165.095 121.773 165.095 122.423H165.436C165.436 121.695 165.118 120.728 164.645 119.703C164.169 118.672 163.526 117.559 162.856 116.532C162.185 115.504 161.485 114.556 160.891 113.856C160.595 113.506 160.323 113.214 160.093 113.005C159.978 112.9 159.871 112.813 159.774 112.749C159.681 112.687 159.582 112.636 159.486 112.622L159.436 112.96ZM165.095 122.423C165.095 125.251 162.648 127.57 159.619 127.57V127.912C162.817 127.912 165.436 125.459 165.436 122.423H165.095Z" fill="#767676" mask="url(#path-24-outside-1_163_6920)"/>
<defs>
<linearGradient id="paint0_linear_163_6920" x1="0.0103066" y1="74.969" x2="149.973" y2="74.969" gradientUnits="userSpaceOnUse">
<stop stop-color="white"/>
<stop offset="0.327" stop-color="#808285"/>
<stop offset="0.5757" stop-color="white"/>
<stop offset="0.8946" stop-color="#808285"/>
</linearGradient>
</defs>
</svg>
